<svg xmlns="http://www.w3.org/2000/svg" xmlns:xlink="http://www.w3.org/1999/xlink" width="107" height="107" viewBox="0 0 107 107" fill="none"><g opacity="1"  transform="translate(0 0)"><path id="矩形 1" fill-rule="evenodd" style="fill:#3182CE" opacity="1" d="M15 -1.12668e-14L92 -1.12668e-14C100.284 -1.12668e-14 107 6.71573 107 15L107 92C107 100.284 100.284 107 92 107L15 107C6.71573 107 -1.84219e-14 100.284 -1.69001e-14 92L5.63338e-15 15C6.14064e-15 6.71573 6.71573 -1.22813e-14 15 -1.12668e-14Z"></path><path id="路径 1" fill-rule="evenodd" style="fill:#FFFFFF" opacity="1" d="M40.2686 40L40.2686 46.2306L19.5006 46.2306C15.492 46.2306 12.2306 49.492 12.2306 53.4995C12.2306 57.508 15.492 60.7695 19.5006 60.7695L30.0916 60.7695L30.0916 67L19.5006 67C12.0562 66.9997 6 60.9432 6 53.4992C6 46.0562 12.0562 40 19.5006 40L40.2686 40ZM68.5161 40C75.9604 40 82.0153 46.0562 82.0153 53.4992C82.0153 60.9435 75.9601 66.9997 68.5161 66.9997L58.132 66.9997C50.6881 66.9997 44.6329 60.9432 44.6329 53.4992C44.6329 46.0562 50.6881 40 58.132 40L68.5161 40ZM35.2835 50.4886C38.1464 50.4886 40.4757 52.8176 40.4757 55.6808L40.4757 66.9657L34.2451 66.9657L34.2451 56.7188L19.5006 56.7188L19.5006 50.4886L35.2835 50.4886ZM68.5165 46.2302L58.1324 46.2302C54.1236 46.2302 50.8634 49.4917 50.8634 53.4992C50.8634 57.5077 54.1239 60.7691 58.1324 60.7691L68.5165 60.7691C72.5249 60.7691 75.7854 57.5077 75.7854 53.4992C75.7854 49.492 72.5249 46.2302 68.5165 46.2302ZM96.099 40.0728L96.1206 45.5298L101.578 45.5072L101.597 50.183L96.1397 50.2057L96.162 55.6626L91.4849 55.6814L91.4634 50.2245L86.0064 50.2472L85.9873 45.5699L91.4435 45.5483L91.422 40.0914L96.099 40.0728Z"></path></g></svg>