<svg xmlns="http://www.w3.org/2000/svg" xmlns:xlink="http://www.w3.org/1999/xlink" width="195.9921875" height="184.96160888671875" viewBox="0 0 195.9921875 184.96160888671875" fill="none"><g opacity="1"  transform="translate(3 2.99932861328125)"><path id="path4190" fill-rule="evenodd" style="fill:#000000" opacity="1" d="M83.1907 39.9186L82.706 63.1405C84.8601 63.0543 89.3721 63.0831 93.405 64.2886C96.2734 65.1785 98.8807 66.6711 100.407 69.0248C102.879 72.8712 102.928 76.8038 101.812 80.1909C100.45 84.2956 97.3031 87.5966 94.7158 88.9457C93.1554 89.7782 91.0959 90.18 89.0164 90.3235C86.5381 90.5244 84.037 90.3522 82.4336 90.18L82.64 106.972L105.312 106.857C105.768 106.857 106.204 107.029 106.522 107.345C106.84 107.69 107.015 108.12 107.007 108.579C107.007 108.579 106.932 114.148 108.051 119.085C108.573 121.382 109.307 123.563 110.564 124.797C112.391 126.577 114.883 127.208 117.155 126.864C119.41 126.491 121.455 125.113 122.321 122.817C122.949 121.123 123.33 119.114 123.571 117.133C124.134 112.512 123.904 108.063 123.904 108.063C123.878 107.517 124.076 107.001 124.446 106.627C124.816 106.226 125.33 106.025 125.863 106.025L152.292 106.225C153.417 106.225 154.32 107.144 154.314 108.264L154.125 176.723C154.119 177.958 153.115 178.962 151.879 178.962C151.879 178.962 114.424 178.991 76.9665 178.876C39.5116 178.761 2.05669 178.56 2.05669 178.56C1.50883 178.56 0.9839 178.331 0.59954 177.958C0.212312 177.556 -0.00284004 177.039 2.8316e-05 176.494L1.03259 39.5169C1.03259 39.1437 1.18748 38.7704 1.45711 38.4834C1.7296 38.225 2.09677 38.0817 2.47826 38.0817L82.1897 38.8853C82.4594 38.8853 82.7175 39 82.9068 39.201C83.0961 39.4019 83.1965 39.6602 83.1907 39.9186ZM81.1456 40.9232L3.91244 40.9521C3.93538 55.4191 4.11608 174.427 4.11608 174.427C12.4343 174.398 44.7033 174.341 76.9752 174.341C109.026 174.341 141.077 174.456 149.659 174.485C149.759 162.888 150.207 110.273 150.207 110.273L127.811 109.928C127.805 111.794 127.722 114.665 127.34 117.593C127.042 119.889 126.563 122.214 125.82 124.137C124.432 127.754 121.251 129.964 117.706 130.481C114.367 130.969 110.716 129.993 108.054 127.352C106.407 125.716 105.286 122.903 104.629 119.86C103.857 116.272 103.665 112.397 103.622 110.244L81.0911 110.129C80.2306 110.129 79.5308 109.412 79.5222 108.551L79.4906 88.5152C79.4877 88.0846 79.6742 87.6826 80.004 87.3956C80.3339 87.1086 80.7698 86.9937 81.1944 87.0511C81.1944 87.0511 85.038 87.7402 88.8242 87.5105C90.5022 87.3957 92.1716 87.1372 93.4366 86.477C95.5677 85.3862 98.135 82.6882 99.2909 79.3298C100.215 76.6316 100.212 73.5027 98.2668 70.4026C97.0736 68.4794 94.9567 67.36 92.6793 66.6424C87.5851 65.0063 81.6276 65.4943 81.6276 65.4943C81.3006 65.523 80.9764 65.4082 80.7383 65.2072C80.5003 64.9776 80.3684 64.6617 80.377 64.3172L81.1456 40.9232Z"></path><path  id="path4190" style="fill:#000000; opacity:1;" d="M86.1901 39.9812L85.7053 63.2031L82.706 63.1405L82.5862 60.1429L82.706 63.1405L82.5862 60.1429Q89.1352 59.8811 94.2643 61.4143Q100.252 63.2717 102.924 67.3929Q107.065 73.8344 104.661 81.1296Q102.248 88.4017 96.1029 91.6058Q93.4427 93.0251 89.2229 93.3164Q85.9872 93.5789 82.1132 93.1628L82.4336 90.18L85.4333 90.1431L85.6398 106.935L82.64 106.972L82.6248 103.972L105.296 103.857C106.554 103.857 107.753 104.34 108.634 105.215L108.681 105.261L108.725 105.309L108.681 105.261L108.725 105.309Q110.042 106.734 110.006 108.636Q109.937 113.832 110.977 118.422Q111.73 121.738 112.666 122.657Q114.312 124.261 116.705 123.898Q118.84 123.544 119.514 121.758Q120.217 119.861 120.593 116.771Q121.124 112.407 120.908 108.217Q120.805 106.039 122.316 104.515L124.446 106.627L122.239 104.595L124.446 106.627L122.239 104.595Q123.686 103.025 125.863 103.025L152.315 103.226C155.079 103.225 157.329 105.492 157.314 108.279L157.125 176.732C157.112 179.625 154.767 181.962 151.879 181.962L76.963 181.876L76.9659 181.876L2.04404 181.56Q0.00359535 181.56 -1.49017 180.11L-1.52604 180.075L-1.56073 180.039L-1.52604 180.075L-1.56073 180.039Q-3.01075 178.534 -2.99993 176.478L-1.96732 39.4943Q-1.96741 37.7473 -0.729517 36.4294L-0.669999 36.3661L-0.606912 36.3062C0.226136 35.5165 1.33034 35.0817 2.47826 35.0817L82.22 35.8855Q83.9047 35.8853 85.0904 37.1437Q86.2263 38.3494 86.19 39.9852L86.1901 39.9812ZM80.1915 39.852Q80.1732 40.6744 80.7233 41.2582Q81.3142 41.8853 82.1595 41.8852L2.47826 41.0817C2.86628 41.0817 3.23953 40.9274 3.52112 40.6605L1.45711 38.4834L3.64373 40.5373Q4.0326 40.1233 4.03251 39.5395L2.99999 176.51Q3.002 176.127 2.75981 175.876L0.59954 177.958L2.75981 175.876L0.59954 177.958L2.68925 175.805Q2.43704 175.56 2.06934 175.56L76.9659 175.876L76.9699 175.876L151.879 175.962C151.464 175.962 151.127 176.294 151.125 176.715L151.314 108.248C151.312 108.787 151.753 109.225 152.269 109.225L125.863 109.025Q126.317 109.025 126.653 108.66L126.616 108.7L126.653 108.66L126.616 108.7L126.577 108.74Q126.923 108.39 126.9 107.908Q127.143 112.616 126.549 117.495Q126.088 121.286 125.128 123.876Q123.233 128.899 117.605 129.83Q112.263 130.64 108.461 126.937Q106.27 124.785 105.125 119.748Q103.928 114.464 104.007 108.523Q103.998 109.034 104.319 109.381L106.522 107.345L104.319 109.381L106.522 107.345L104.409 109.475C104.651 109.715 104.971 109.857 105.327 109.857L79.6769 109.987L79.3922 86.836L82.754 87.1971Q86.0659 87.5529 88.8098 87.3306Q91.7501 87.1277 93.3288 86.2857Q97.3187 84.2051 98.9627 79.2523Q100.471 74.6732 97.8893 70.6568Q96.3994 68.3586 92.5458 67.1629Q88.3753 65.9162 82.8258 66.1381L79.6401 66.2654L82.8258 66.1381L79.6401 66.2654L80.1914 39.856L80.1915 39.852ZM81.1467 43.9232L3.91356 43.9521L3.91244 40.9521L6.91243 40.9473L3.91244 40.9521L6.91243 40.9475L7.01351 106.968L7.11608 174.423L4.11608 174.427L4.10572 171.427L4.11608 174.427L4.11254 171.427L76.9716 171.341L149.665 171.485L149.659 174.485L146.659 174.459L149.659 174.485L146.659 174.459L146.924 143.475L147.207 110.247L150.207 110.273L150.161 113.273L127.765 112.928L127.811 109.928L130.811 109.938L127.811 109.928L130.811 109.938Q130.798 114.279 130.315 117.98Q129.758 122.268 128.619 125.218Q125.893 132.319 118.138 133.449Q110.993 134.494 105.941 129.482Q103.008 126.567 101.696 120.493Q100.737 116.032 100.623 110.304L103.622 110.244L103.607 113.244L81.0759 113.129C78.5716 113.129 76.5476 111.1 76.5224 108.581L76.4906 88.5199C76.4819 87.2289 77.0492 85.99 78.0347 85.1325Q79.5624 83.8031 81.5964 84.0781L81.6603 84.0868L81.7237 84.0982L81.6603 84.0868L81.7237 84.0982Q85.2144 84.7239 88.6426 84.516Q91.0221 84.3531 92.0485 83.8174Q95.1135 82.2486 96.4543 78.3534Q97.6047 74.9924 95.7255 71.9968Q94.7621 70.4441 91.7777 69.5038Q87.2356 68.045 81.8725 68.4843Q80.1491 68.6356 78.8034 67.4998L78.7273 67.4356L78.6556 67.3665L78.7273 67.4356L78.6556 67.3665Q77.3318 66.0896 77.3779 64.2423L78.1472 40.8247L81.1456 40.9232L81.1467 43.9232ZM84.2458 37.9221L83.3761 64.3922Q83.3958 63.6023 82.821 63.048L80.7383 65.2072L82.821 63.048L80.7383 65.2072L82.6733 62.9146Q82.1112 62.4403 81.3827 62.5043Q87.9346 61.9676 93.5808 63.7811Q98.6874 65.3901 100.808 68.8083Q104.208 74.2281 102.128 80.3062Q99.9999 86.4879 94.8246 89.1366Q92.6848 90.2534 89.0058 90.505Q84.8616 90.7564 80.665 90.004L81.1944 87.0511L80.665 90.004L81.1944 87.0511L80.7923 90.024Q81.4512 90.1131 81.9734 89.6587C82.308 89.3675 82.4935 88.9387 82.4906 88.5104L82.5221 108.521C82.5144 107.75 81.8619 107.129 81.1064 107.129L106.563 107.259L106.621 110.184Q106.724 115.335 107.561 119.227Q108.498 123.564 110.167 125.222Q113.091 128.123 117.273 127.512Q121.551 126.889 123.022 123.056Q123.901 120.779 124.366 117.205Q124.799 113.881 124.811 109.919L124.82 106.882L124.811 109.919L124.82 106.882L153.232 107.319L152.924 143.526L152.633 177.49L152.659 174.511L152.633 177.49L76.9787 177.341L1.12064 177.431L4.12644 177.427L1.12065 177.437L1.01352 106.977L0.907843 37.9532L0.912441 40.9569L0.907677 37.9532L81.1445 37.9232L84.2458 37.9221Z"></path><path id="path4192" fill-rule="evenodd" style="fill:#000000" opacity="1" d="M2.26883 110.301C1.71524 110.301 1.25923 109.842 1.25636 109.297C1.25349 108.751 1.70095 108.292 2.25454 108.292L26.7903 107.661C27.0313 105.565 27.6193 101.288 28.738 97.3559C29.6157 94.2845 30.8635 91.414 32.4238 89.7779C35.1975 86.85 38.9235 85.6733 42.4631 85.7881C46.5562 85.9317 50.351 87.8548 52.3072 90.8114C53.6123 92.7633 54.4326 95.5188 54.8973 98.3606C55.4251 101.604 55.5026 104.934 55.4797 107.115L81.0223 106.283C81.6333 106.254 82.227 106.484 82.6659 106.914C83.1076 107.345 83.3571 107.919 83.36 108.551L83.2653 131.055C83.2711 132.174 82.3818 133.093 81.2603 133.15C81.2603 133.15 76.278 133.265 71.8866 134.758C69.9791 135.418 68.1578 136.307 67.0678 137.657C65.4128 139.723 64.7271 142.249 65.0513 144.632C65.3754 147.014 66.6633 149.282 68.9063 150.889C70.0737 151.722 71.6915 152.181 73.335 152.439C77.1385 153.071 81.1141 152.669 81.1141 152.669C81.5099 152.612 81.9057 152.755 82.2012 153.013C82.4995 153.272 82.6687 153.645 82.6687 154.047L82.2814 176.608C82.2814 177.182 81.8311 177.613 81.2775 177.613C80.7211 177.613 80.2708 177.182 80.2708 176.608L79.9122 155.597C78.2744 155.712 75.5523 155.826 72.8905 155.453C70.7335 155.166 68.6339 154.564 67.0763 153.53C63.9499 151.464 62.1371 148.392 61.6007 145.149C61.0528 141.819 61.8903 138.317 64.1133 135.36C65.5704 133.437 67.9684 132.031 70.5729 131.083C73.6506 129.935 77.0038 129.39 79.0805 129.16L78.8509 110.876L53.2595 111.622C52.6313 111.651 52.0261 111.392 51.593 110.933C51.1598 110.474 50.9362 109.871 50.985 109.239C50.985 109.239 51.4209 104.015 50.7009 98.9921C50.3797 96.7819 49.8662 94.5714 48.8795 93.0214C47.6146 91.0408 45.0302 89.8066 42.2852 89.6343C39.7467 89.4908 37.0361 90.2372 34.9852 92.2752C33.6887 93.5669 32.7107 95.8631 31.9276 98.3317C30.2812 103.47 29.5927 109.268 29.5927 109.268C29.5153 110.015 28.8872 110.588 28.1328 110.588L2.26883 110.301Z"></path><path  id="path4192" style="fill:#000000; opacity:1;" d="M2.26883 113.301C0.0624141 113.301 -1.73199 111.519 -1.7436 109.313C-1.75525 107.096 0.0381863 105.292 2.25454 105.292L2.25454 108.292L2.17735 105.293L26.7132 104.662L26.7903 107.661L23.81 107.318L26.7903 107.661L23.81 107.318Q24.5053 101.271 25.8524 96.5351Q27.5718 90.5187 30.2528 87.7074Q35.1397 82.549 42.5604 82.7897Q50.7877 83.0782 54.8092 89.156Q56.9574 92.3688 57.858 97.8764Q58.5334 102.027 58.4795 107.147L55.4797 107.115L55.3819 104.117L80.9246 103.284C82.3277 103.218 83.7335 103.759 84.7669 104.773Q86.3499 106.316 86.36 108.537L86.2653 131.067C86.2793 133.771 84.1418 136.007 81.4137 136.146L81.3715 136.148L81.3293 136.149L81.3715 136.148L81.3293 136.149Q76.8075 136.254 72.852 137.598Q70.2421 138.501 69.4013 139.542Q67.679 141.693 68.0239 144.228Q68.3764 146.819 70.6538 148.451Q71.6074 149.131 73.8009 149.476Q77.2351 150.046 80.8125 149.684L81.1141 152.669L80.6835 149.7C81.9483 149.517 83.2139 149.914 84.176 150.755C85.123 151.575 85.6687 152.78 85.6687 154.047L85.281 176.66Q85.2814 180.613 81.2775 180.613Q77.2708 180.613 77.2708 176.608L76.9127 155.648L79.9122 155.597L80.122 158.589L79.9122 155.597L80.122 158.589Q75.8093 158.892 72.474 158.424Q68.1613 157.85 65.4178 156.03Q59.7386 152.276 58.6409 145.638Q57.5621 139.081 61.7155 133.557Q64.2723 130.183 69.5475 128.264Q73.6162 126.746 78.7507 126.178L79.0805 129.16L76.0807 129.198L75.8511 110.913L78.8509 110.876L78.9384 113.874L53.347 114.621C51.8922 114.688 50.4436 114.087 49.4104 112.991C48.4014 111.921 47.8807 110.475 47.9939 109.008Q48.403 104.105 47.7313 99.4177Q47.239 96.0309 46.3488 94.6324Q45.1929 92.8227 42.0974 92.6285Q39.0586 92.4567 37.0998 94.4032Q35.9613 95.5375 34.7872 99.2388Q33.2266 104.109 32.5718 109.622L32.5718 109.622C32.3405 111.855 30.4217 113.588 28.1328 113.588L2.23554 113.301L2.26883 113.301ZM2.30212 107.302L28.1328 107.588C27.3478 107.588 26.6898 108.178 26.6137 108.914L26.6137 108.914Q27.3366 102.828 29.068 97.4246Q30.6862 92.3235 32.8706 90.1472Q36.7267 86.3153 42.4731 86.6402Q48.6096 87.0252 51.4102 91.4104Q52.9915 93.8944 53.6706 98.5665Q54.4388 103.926 53.9761 109.47C53.993 109.251 53.9266 109.035 53.7755 108.875C53.6095 108.699 53.3642 108.614 53.172 108.623L81.8124 107.788L82.1144 131.843L79.4102 132.142Q75.0158 132.628 71.5982 133.903Q67.986 135.217 66.5111 137.163Q63.8988 140.638 64.5605 144.659Q65.2311 148.714 68.7349 151.03Q70.325 152.085 73.307 152.482Q76.0183 152.862 79.7024 152.604L82.8578 152.383L79.7024 152.604L82.8578 152.383L83.2708 176.608Q83.2708 174.613 81.2775 174.613Q80.4651 174.613 79.8798 175.191Q79.2814 175.781 79.2819 176.557L79.6687 154.047C79.6687 154.521 79.8791 154.971 80.2264 155.272C80.5835 155.584 81.0752 155.706 81.5446 155.638L81.4803 155.647L81.4156 155.654Q77.0419 156.096 72.8692 155.403Q69.277 154.838 67.1588 153.328Q62.7797 150.19 62.0787 145.036Q61.3868 139.951 64.7342 135.771Q66.6552 133.394 70.9211 131.917Q75.7486 130.276 81.1912 130.151L81.2603 133.15L81.1912 130.151L81.2603 133.15L81.1069 130.154C80.6329 130.178 80.2629 130.595 80.2654 131.042L80.36 108.564Q80.3614 108.857 80.5649 109.056C80.723 109.211 80.9419 109.29 81.1201 109.281L52.4469 110.216L52.4798 107.084Q52.5283 102.481 51.9366 98.8447Q51.2461 94.6217 49.8053 92.4668Q47.4891 88.9662 42.3658 88.7866Q37.6406 88.6333 34.5948 91.8483Q32.9345 93.5893 31.6235 98.1767Q30.4102 102.442 29.7707 108.003L29.473 110.593L29.7707 108.003L29.473 110.593L2.29315 111.292L2.25454 111.292C3.36422 111.292 4.26216 110.391 4.25632 109.281C4.25056 108.186 3.3638 107.301 2.26883 107.301L2.30212 107.302Z"></path><path id="path4194" fill-rule="evenodd" style="fill:#000000" opacity="1" d="M184.461 36.6748C184.943 36.9619 185.106 37.5646 184.828 38.0526C184.547 38.5405 183.933 38.6843 183.451 38.4259C183.451 38.4259 132.939 9.779 123.124 4.21037L116.776 17.2134C119.06 18.2754 122.975 20.3995 126.101 23.3848C128.445 25.6237 130.321 28.3794 130.963 31.4795C131.987 36.4453 130.019 41.0092 126.649 44.1379C123.259 47.2954 118.44 48.9889 113.957 48.2426C112.827 48.0704 111.189 47.439 109.436 46.5492C107.153 45.3723 104.629 43.8224 102.914 42.7316L95.6509 55.5336L118.684 69.1395C119.197 69.4553 119.567 69.9432 119.708 70.5173C119.851 71.0914 119.754 71.7227 119.441 72.2107C119.441 72.2107 116.481 76.9182 114.958 82.3147C114.315 84.5823 113.917 86.9649 114.186 89.1751C114.556 92.189 116.243 94.3417 118.5 95.3176C120.835 96.3223 123.715 96.1215 126.288 94.5714C127.917 93.5955 129.489 91.787 130.9 89.8638C134.009 85.5869 136.281 80.5924 136.281 80.5924C136.493 80.1044 136.901 79.7313 137.403 79.5877C137.905 79.4155 138.447 79.5017 138.894 79.7887L157.518 91.5861L188.127 43.0758C188.419 42.6166 189.039 42.4731 189.512 42.7602C189.985 43.0472 190.132 43.6787 189.839 44.1379L159.38 94.6289C159.156 95.0021 158.798 95.2603 158.382 95.3751C157.969 95.4612 157.53 95.3751 157.168 95.1741L138.725 83.9223C137.758 85.9029 136.063 89.1463 133.998 92.0741C132.294 94.514 130.321 96.6956 128.327 97.9299C124.587 100.255 120.362 100.484 116.917 99.0492C113.397 97.5853 110.655 94.3991 110.016 89.7203C109.648 86.9934 110.056 84.0082 110.822 81.1665C111.84 77.4062 113.486 73.9332 114.576 71.8665L91.38 58.318C90.2957 57.6865 89.9256 56.3087 90.548 55.218L100.171 38.3971C100.484 37.8517 101.012 37.4499 101.629 37.3064C102.245 37.1628 102.894 37.3064 103.416 37.6509C103.416 37.6509 106.909 40.062 110.297 41.9565C111.98 42.8751 113.61 43.7361 114.674 43.9084C117.869 44.4537 121.294 43.2194 123.738 40.9805C126.09 38.8276 127.561 35.7275 126.899 32.3117C126.454 29.9867 125.008 27.9774 123.29 26.2838C119.189 22.2365 113.478 19.9403 113.478 19.9403C112.976 19.7393 112.58 19.3375 112.388 18.8496C112.196 18.3329 112.221 17.7874 112.462 17.2994L120.795 0.966839C121.01 0.536274 121.397 0.220359 121.862 0.0768375C122.327 -0.066684 122.829 -0.00910721 123.25 0.249231L184.461 36.6748Z"></path><path  id="path4194" style="fill:#000000; opacity:1;" d="M185.996 34.0974C187.876 35.217 188.518 37.638 187.434 39.5385Q185.486 42.9207 182.034 41.07L182.002 41.0531L181.971 41.0355L182.002 41.0531L150.987 23.4627L121.644 6.81985L123.124 4.21037L125.82 5.52643L119.472 18.5294L116.776 17.2134L118.042 14.4932L116.776 17.2134L118.042 14.4932Q124.07 17.2975 128.173 21.215Q132.82 25.6544 133.901 30.8706Q135.74 39.7917 128.69 46.3366C124.617 50.1299 118.959 52.1166 113.464 51.2019Q111.335 50.8776 108.078 49.2242Q105.2 47.7409 101.304 45.2631L102.914 42.7316L105.523 44.2119L98.2602 57.0139L95.6509 55.5336L97.1767 52.9506L120.21 66.5566C121.432 67.3078 122.293 68.462 122.622 69.8039Q123.162 71.9647 121.967 73.8291Q119.251 78.1492 117.845 83.1295Q116.885 86.5195 117.164 88.8118Q117.509 91.6207 119.691 92.564Q122.092 93.597 124.74 92.0017Q126.293 91.0712 128.481 88.089Q131.404 84.0684 133.55 79.3503C134.097 78.0928 135.212 77.094 136.578 76.7033L137.403 79.5877L136.429 76.7501C137.799 76.2802 139.295 76.4818 140.514 77.2636L159.124 89.0518L157.518 91.5861L154.981 89.9852L185.589 41.475C186.771 39.62 189.198 39.0613 191.068 40.1951C192.98 41.3547 193.571 43.8639 192.369 45.7498L189.839 44.1379L192.408 45.6876L161.949 96.1786C161.334 97.2033 160.34 97.9468 159.18 98.2669L159.088 98.2924L158.994 98.312L159.088 98.2924L158.994 98.312Q157.281 98.6691 155.711 97.7962L155.658 97.7667L137.163 86.4833L138.725 83.9223L141.421 85.2381L138.725 83.9223L141.421 85.2381Q139.018 90.162 136.449 93.8033Q133.219 98.4297 129.906 100.481Q122.942 104.81 115.763 101.818Q108.212 98.6777 107.043 90.1267Q106.462 85.8127 107.925 80.3858Q109.227 75.5789 111.923 70.467L114.576 71.8665L113.063 74.4569L89.8669 60.9085C87.3659 59.4518 86.5061 56.2481 87.9424 53.7311L97.5675 36.9073C98.2976 35.6336 99.5211 34.7167 100.949 34.3845C102.37 34.0537 103.85 34.3433 105.068 35.1468Q108.497 37.5127 111.761 39.3382Q114.523 40.845 115.153 40.9469Q118.677 41.5483 121.711 38.7684Q124.585 36.1381 123.954 32.883Q123.545 30.7475 121.184 28.4203Q117.51 24.7951 112.359 22.7237Q110.377 21.9305 109.596 19.9489Q108.828 17.884 109.772 15.9712L118.123 -0.396535C118.694 -1.53989 119.731 -2.40494 120.977 -2.78955C122.266 -3.18793 123.666 -3.01407 124.818 -2.30882L185.995 34.0968L185.996 34.0974ZM182.927 39.2529L121.683 2.80728C122.002 3.00297 122.389 3.05377 122.747 2.94323C123.067 2.84443 123.329 2.60719 123.467 2.33021L115.152 18.6276Q115.354 18.219 115.179 17.7502Q115.011 17.3225 114.597 17.1568Q120.867 19.6778 125.396 24.1473Q129.088 27.7858 129.844 31.7404Q131.115 38.2948 125.764 43.1925Q120.564 47.9571 114.194 46.8698Q112.551 46.6039 108.832 44.5749Q105.321 42.6114 101.763 40.1549C101.92 40.2581 102.126 40.2708 102.309 40.2283C102.505 40.1827 102.674 40.0636 102.775 39.8868L93.1537 56.7048C93.3494 56.3617 93.2312 55.9244 92.893 55.7275L118.57 70.7249L117.23 73.2659Q114.844 77.7894 113.718 81.9471Q112.57 86.2085 112.988 89.314Q113.691 94.4583 118.071 96.2799Q122.398 98.083 126.748 95.3792Q129.008 93.9799 131.546 90.3449Q133.837 87.0974 136.029 82.6065L137.474 79.645L136.029 82.6065L137.474 79.645L158.731 92.6131L157.168 95.1741L158.626 92.5521Q158.244 92.3394 157.769 92.4383L158.382 95.3751L157.769 92.4383L158.382 95.3751L157.583 92.4833C157.257 92.5733 156.981 92.796 156.811 93.0793L187.289 42.557L187.309 42.5261C186.702 43.4786 186.991 44.7396 187.956 45.3253C188.876 45.8832 190.079 45.5951 190.664 44.6767L158.452 95.7286L137.274 82.3138C137.598 82.5216 138.012 82.5503 138.376 82.4254L138.302 82.4507L138.227 82.4722C138.585 82.3698 138.884 82.1304 139.012 81.8345Q136.615 87.1054 133.319 91.6387Q130.415 95.5965 127.836 97.1412Q122.549 100.326 117.31 98.0713Q111.973 95.7639 111.208 89.5384Q110.782 86.0465 112.071 81.4998Q113.711 75.6873 116.915 70.5922Q116.713 70.9074 116.794 71.2307C116.841 71.4222 116.944 71.5917 117.158 71.7225L91.5869 56.6173L101.861 38.5071L104.523 40.2001Q108.191 42.5321 110.794 43.8742Q113.191 45.0913 114.449 45.2833C118.107 45.8923 121.891 44.47 124.608 41.9393Q129.181 37.6937 128.026 32.0883Q127.324 28.7019 124.03 25.5545Q120.642 22.3204 115.511 19.9335L112.739 18.6442L115.511 19.9335L112.739 18.6442L121.828 0.0263915L153.946 18.2436L184.931 35.8164L183.451 38.4259L184.931 35.8164L183.451 38.4259L184.869 35.7819Q183.192 34.8829 182.222 36.5666C181.686 37.5061 181.996 38.6988 182.926 39.2522L182.927 39.2529Z"></path><path id="path4196" fill-rule="evenodd" style="fill:#000000" opacity="1" d="M156.19 101.661C155.789 101.288 155.772 100.657 156.156 100.255C156.537 99.8529 157.174 99.8241 157.576 100.197C157.576 100.197 161.385 103.125 164.635 110.072C165.263 111.421 165.84 112.942 166.347 114.607C166.648 115.583 166.929 116.645 167.136 117.736C167.583 120.147 167.822 122.788 167.799 125.715C167.776 129.275 167.319 133.15 166.459 137.456C166.396 138.03 165.897 138.403 165.346 138.345C164.795 138.288 164.4 137.8 164.463 137.226C164.526 134.815 164.44 132.547 164.308 130.423C164.161 128.012 163.889 125.802 163.576 123.706C163.341 122.185 163.054 120.721 162.788 119.372C162.486 117.822 162.188 116.387 161.858 115.066C161.333 112.913 160.783 111.048 160.186 109.44C158.273 104.245 156.19 101.661 156.19 101.661Z"></path><path  id="path4196" style="fill:#000000; opacity:1;" d="M154.148 103.859C152.516 102.343 152.448 99.791 153.988 98.1811C155.49 96.5988 158.011 96.5068 159.618 97.9996L157.576 100.197L159.404 97.8187L157.576 100.197L159.404 97.8187Q159.76 98.092 160.275 98.5764Q161.215 99.4585 162.174 100.588Q165.151 104.095 167.352 108.8Q168.398 111.046 169.217 113.732Q169.772 115.53 170.084 117.178Q170.834 121.221 170.799 125.739Q170.763 131.227 169.401 138.044L166.459 137.456L169.441 137.783L166.459 137.456L169.441 137.783Q169.351 138.6 168.954 139.31Q168.564 140.007 167.935 140.499Q166.659 141.499 165.035 141.329Q164.225 141.245 163.515 140.852Q162.821 140.468 162.327 139.847Q161.298 138.555 161.481 136.898L164.463 137.226L161.464 137.147L164.463 137.226L161.464 137.147Q161.54 134.248 161.313 130.609Q161.136 127.677 160.609 124.149Q160.377 122.645 159.845 119.954Q159.345 117.386 158.948 115.793Q158.189 112.68 157.373 110.484Q156.268 107.481 154.884 105.122Q154.237 104.018 153.854 103.544L153.855 103.544L156.19 101.661L154.148 103.859ZM158.232 99.4637L158.391 99.6105L158.526 99.7785L158.526 99.779Q159.187 100.599 160.06 102.086Q161.714 104.907 162.999 108.396Q163.935 110.919 164.769 114.339Q165.205 116.085 165.731 118.79Q166.287 121.604 166.543 123.263Q167.109 127.051 167.302 130.237Q167.544 134.14 167.462 137.304L167.458 137.429L167.462 137.304L167.458 137.429L167.445 137.554Q167.533 136.753 167.022 136.111Q166.494 135.449 165.657 135.362Q164.869 135.279 164.235 135.776Q163.568 136.298 163.477 137.128L163.491 136.997L163.477 137.128L163.491 136.997L163.517 136.868Q164.767 130.614 164.799 125.692Q164.83 121.749 164.188 118.294Q163.939 116.977 163.478 115.482Q162.781 113.198 161.917 111.343Q160.057 107.365 157.6 104.471Q156.86 103.6 156.168 102.95Q155.868 102.669 155.747 102.576L155.636 102.49L155.747 102.576L155.636 102.49L155.534 102.395C156.336 103.141 157.577 103.115 158.324 102.328C159.098 101.519 159.053 100.226 158.232 99.4637Z"></path><path id="path4198" fill-rule="evenodd" style="fill:#000000" opacity="1" d="M168.068 93.05C167.517 92.9926 167.11 92.5045 167.165 91.9304C167.216 91.3851 167.707 90.9833 168.26 91.0407C168.26 91.0407 169.695 90.8972 171.912 91.0407C172.658 91.0981 173.455 91.2128 174.327 91.3564C175.098 91.4999 175.893 91.7295 176.705 92.0165C177.218 92.1887 177.737 92.3897 178.236 92.648C179.151 93.136 180.032 93.7102 180.847 94.4278C181.601 95.0593 182.301 95.7482 182.912 96.5806C183.804 97.7575 184.541 98.9918 185.04 100.456C185.307 100.944 185.129 101.546 184.644 101.833C184.157 102.092 183.546 101.92 183.279 101.432C182.155 99.9965 180.72 99.1065 179.24 98.2454C178.4 97.7574 177.528 97.3844 176.685 96.9826C176.097 96.6955 175.526 96.4085 174.969 96.1214C174.02 95.6622 173.142 95.2027 172.308 94.8009C169.844 93.6814 168.068 93.05 168.068 93.05Z"></path><path  id="path4198" style="fill:#000000; opacity:1;" d="M167.757 96.0339M167.757 96.0339Q166.11 95.8621 165.064 94.5797Q164.021 93.3002 164.178 91.6469C164.387 89.4355 166.36 87.8275 168.57 88.0567L168.26 91.0407L167.962 88.0556L168.26 91.0407L167.962 88.0556Q169.642 87.8875 172.106 88.047Q173.206 88.1314 174.814 88.3962Q176.184 88.6504 177.705 89.1881Q178.763 89.5428 179.615 89.9838Q181.452 90.9629 182.83 92.1767L180.847 94.4278L182.772 92.1274L180.847 94.4278L182.772 92.1274Q184.309 93.4134 185.33 94.8055Q187.062 97.0896 187.88 99.4876L185.04 100.456L187.672 99.0167L185.04 100.456L187.672 99.0167Q188.465 100.467 188.006 102.054Q187.56 103.593 186.173 104.415L186.112 104.451L186.049 104.484C184.111 105.511 181.698 104.795 180.647 102.871L183.279 101.432L180.917 103.282L183.279 101.432L180.917 103.282Q180.406 102.628 179.601 102.029Q178.968 101.558 177.732 100.838Q177.219 100.541 176.047 99.9966Q175.615 99.796 175.394 99.6908Q174.484 99.2465 173.594 98.7876L174.969 96.1214L173.663 98.8221L174.969 96.1214L173.663 98.8221Q173.165 98.5814 172.242 98.1171Q171.398 97.6928 171.006 97.5039L172.308 94.8009L171.067 97.5322L172.308 94.8009L171.067 97.5322Q168.719 96.4653 167.063 95.8766L168.068 93.05L167.757 96.0339ZM168.379 90.0662L168.736 90.1033L169.073 90.2234Q170.969 90.8975 173.549 92.0696L173.579 92.0834L173.549 92.0696L173.579 92.0834L173.609 92.0978Q174.048 92.3092 174.938 92.7568Q175.82 93.2003 176.276 93.4208L176.31 93.4376L176.276 93.4208L176.31 93.4376L176.345 93.4553Q177.175 93.8837 177.975 94.2743Q178.169 94.3665 178.573 94.5545Q179.994 95.214 180.749 95.6523Q182.279 96.5427 183.185 97.2173Q184.634 98.2962 185.641 99.5816L185.793 99.776L185.641 99.5816L185.793 99.776L185.911 99.9927C185.388 99.036 184.203 98.6721 183.24 99.1825L184.644 101.833L183.116 99.252Q182.458 99.6416 182.242 100.385Q182.014 101.174 182.408 101.895L182.284 101.668L182.408 101.895L182.284 101.668L182.201 101.424Q181.696 99.9423 180.493 98.3557Q179.901 97.5484 178.921 96.7281L178.892 96.7039L178.921 96.7281L178.892 96.7039L178.864 96.6789Q178.011 95.9277 176.857 95.3123Q176.416 95.0841 175.705 94.8449Q174.626 94.4634 173.84 94.3165Q172.487 94.0939 171.718 94.0345Q170.471 93.9538 169.339 93.9857Q168.811 94.0006 168.559 94.0258L168.255 94.0562L168.559 94.0258L168.255 94.0562L167.951 94.0247C169.058 94.1395 170.046 93.3209 170.151 92.214Q170.227 91.4166 169.715 90.7882Q169.195 90.1512 168.379 90.0662Z"></path><path id="path4200" fill-rule="evenodd" style="fill:#000000" opacity="1" d="M66.3936 5.50191C65.8831 5.27228 65.6507 4.66932 65.8715 4.18135C66.0924 3.66467 66.6862 3.4352 67.1939 3.63613C67.1939 3.63613 72.3397 5.27222 78.2571 9.03248C79.5938 9.86491 80.9476 10.8407 82.2871 11.9315C83.1362 12.6204 83.9795 13.3669 84.7712 14.1707C86.7016 16.1226 88.457 18.3613 89.8797 20.8298C91.9507 24.4179 93.3103 28.4653 93.5369 32.857C93.6086 33.4024 93.2214 33.8905 92.6706 33.9766C92.1228 34.034 91.615 33.6609 91.5433 33.1155C90.984 30.5608 89.9571 28.2644 88.7094 26.1115C87.4387 23.9013 85.8611 21.9493 84.1917 20.1122C83.1591 18.9928 82.0778 17.9309 81.005 16.8976C79.8749 15.8068 78.7591 14.7446 77.6462 13.7687C76.1489 12.477 74.7061 11.2715 73.3494 10.2381C69.4083 7.22417 66.3936 5.50191 66.3936 5.50191Z"></path><path  id="path4200" style="fill:#000000; opacity:1;" d="M65.1631 8.23792M65.1631 8.23792Q63.6658 7.56451 63.0655 6.03403Q62.4501 4.46526 63.1384 2.94445Q64.6513 -0.59655 68.2979 0.846648L67.1939 3.63613L68.1029 0.77716L67.1939 3.63613L68.1029 0.77716Q73.62 2.53128 79.8661 6.50046Q82.0017 7.83026 84.1814 9.60521Q85.6941 10.8326 86.9084 12.0654Q90.2223 15.4161 92.479 19.3319Q96.1733 25.7324 96.5329 32.7025L93.5369 32.857L96.5113 32.466L93.5369 32.857L96.5113 32.466Q97.0197 36.333 93.1341 36.9406L93.0589 36.9524L92.9833 36.9603L93.0589 36.9524L92.9833 36.9603Q89.0769 37.3696 88.5689 33.5066L91.5433 33.1155L88.6127 33.7571L91.5433 33.1155L88.6127 33.7571Q87.9689 30.8167 86.1138 27.6159Q84.662 25.0905 81.9715 22.1298Q80.8467 20.9105 78.9238 19.0582Q76.8943 17.0995 75.6682 16.0243Q73.2035 13.8981 71.5317 12.6247Q67.7456 9.72932 64.9055 8.10679L66.3936 5.50191L65.1631 8.23792ZM67.6242 2.7659L67.7562 2.82526L67.8818 2.89703Q71.071 4.71902 75.1672 7.85153Q76.9845 9.23567 79.6242 11.5131Q80.958 12.6828 83.0863 14.7369Q85.1368 16.7121 86.412 18.0947Q89.5396 21.5365 91.305 24.6072Q93.6298 28.6185 94.4739 32.4739L94.5011 32.5982L94.4739 32.4739L94.5011 32.5982L94.5177 32.7244Q94.2638 30.7933 92.358 30.993L92.6706 33.9766L92.358 30.993L92.6706 33.9766L92.2072 31.0126Q90.3076 31.3097 90.5625 33.2481L90.547 33.1303L90.5625 33.2481L90.547 33.1303L90.5409 33.0116Q90.2556 27.4823 87.2805 22.3278Q85.4109 19.0839 82.6339 16.2759Q81.6541 15.2812 80.3928 14.2578Q78.5075 12.7226 76.6481 11.5645Q71.0595 8.01316 66.2849 6.4951L66.1862 6.46373L66.2849 6.4951L66.1862 6.46373L66.0899 6.42562Q67.8731 7.13132 68.6047 5.41825Q68.9606 4.63183 68.6511 3.84298Q68.3581 3.09599 67.6242 2.7659Z"></path><path id="path4202" fill-rule="evenodd" style="fill:#000000" opacity="1" d="M92.1602 9.11854C91.6468 8.8889 91.4001 8.31493 91.6095 7.79825C91.8189 7.28157 92.4068 7.02312 92.9203 7.25276C92.9203 7.25276 94.0763 7.42493 95.8633 8.05642C96.4513 8.25735 97.0594 8.48704 97.7277 8.83149C98.3129 9.11854 98.8894 9.46316 99.4802 9.86502C99.8474 10.1234 100.212 10.4103 100.544 10.7547C101.15 11.3288 101.7 12.0177 102.182 12.764C102.618 13.4529 103.008 14.1417 103.315 14.9455C103.757 16.0649 104.087 17.1844 104.239 18.4474C104.42 18.9641 104.139 19.5382 103.614 19.7391C103.089 19.9114 102.518 19.6243 102.337 19.1076C101.812 18.2464 101.175 17.5863 100.524 16.8687C100.002 16.2946 99.4343 15.8641 98.8893 15.3474C98.33 14.8307 97.7421 14.4002 97.22 13.9122C96.5087 13.252 95.9006 12.5918 95.2954 11.989C93.4653 10.238 92.1602 9.11854 92.1602 9.11854Z"></path><path  id="path4202" style="fill:#000000; opacity:1;" d="M90.9354 11.8571M90.9354 11.8571Q89.4679 11.2008 88.8488 9.72993Q88.2073 8.20596 88.8291 6.67148Q89.1328 5.92211 89.701 5.34955Q90.2564 4.78995 90.9812 4.48306Q91.7241 4.16852 92.5281 4.16846Q93.3719 4.16839 94.1451 4.51418L92.9203 7.25276L93.3622 4.28549L92.9203 7.25276L93.3622 4.28549Q94.8037 4.50018 96.8629 5.22785Q98.1118 5.65447 99.1021 6.16483Q100.075 6.6414 101.167 7.38436Q102.079 8.02542 102.702 8.67054L100.544 10.7547L102.609 8.57817L100.544 10.7547L102.609 8.57817Q103.748 9.65879 104.702 11.1367Q105.634 12.6087 106.118 13.8752Q106.97 16.0342 107.217 18.0889L104.239 18.4474L107.071 17.457L104.239 18.4474L107.071 17.457Q107.341 18.2314 107.284 19.0499Q107.229 19.8225 106.889 20.5224Q106.188 21.9659 104.686 22.5409L104.618 22.5669L104.549 22.5896C102.469 23.2719 100.228 22.1638 99.5053 20.098L102.337 19.1076L99.7755 20.669L102.337 19.1076L99.7755 20.669Q99.4615 20.1539 98.5317 19.136Q98.3802 18.9701 98.3026 18.8846Q98.0884 18.649 97.5168 18.148Q97.0675 17.7541 96.8253 17.5245Q96.6374 17.3513 96.1375 16.9381Q95.5017 16.4126 95.1714 16.1038Q94.654 15.6237 93.7678 14.7139Q93.3677 14.3032 93.1783 14.1146Q91.4503 12.462 90.207 11.3956L92.1602 9.11854L90.9354 11.8571ZM93.385 6.37996L93.7827 6.55782L94.1133 6.84143Q95.4804 8.01401 97.4124 9.86338Q97.634 10.0841 98.0657 10.5273Q98.8464 11.3287 99.2686 11.7206Q99.4653 11.9044 99.9601 12.3134Q100.587 12.8318 100.953 13.1703Q101.111 13.3193 101.472 13.636Q102.299 14.361 102.746 14.8528Q102.817 14.931 102.962 15.0895Q104.283 16.5357 104.899 17.5461L105.064 17.8173L104.899 17.5461L105.064 17.8173L105.169 18.1172C104.812 17.0979 103.704 16.552 102.678 16.8886L103.614 19.7391L102.541 16.9374Q101.828 17.2105 101.492 17.901Q101.13 18.6464 101.407 19.4379L101.299 19.1299L101.407 19.4379L101.299 19.1299L101.26 18.806Q101.105 17.518 100.513 16.0157Q100.243 15.3101 99.6619 14.3914Q99.0975 13.5173 98.4798 12.9313L98.4322 12.8861L98.4798 12.9313L98.4322 12.8861L98.3866 12.8389Q98.1598 12.6041 97.7931 12.3457Q97.0515 11.8413 96.3533 11.4982Q95.7548 11.1897 94.8637 10.885Q93.8969 10.5433 93.0269 10.3362Q92.6399 10.2441 92.4784 10.22L92.0712 10.1594L92.4784 10.22L92.0712 10.1594L91.6954 9.99133Q92.5051 10.3535 93.3206 10.0082Q94.0814 9.68606 94.3898 8.92503Q94.6989 8.16251 94.3788 7.40214Q94.0792 6.69045 93.385 6.37996Z"></path></g></svg>