<svg xmlns="http://www.w3.org/2000/svg" xmlns:xlink="http://www.w3.org/1999/xlink" width="1920" height="603.9996948242188" viewBox="0 0 1920 603.9996948242188" fill="none"><g opacity="1"  transform="translate(0 0)"><g opacity="0.3"  transform="translate(0 74)"><g opacity="1"  transform="translate(0 0)"></g><path id="路径 2" fill-rule="evenodd" style="fill:#1A56DB" opacity="0.1" d="M6.10352e-05 67.3634L64.0001 67.3634L64.0001 0L62.6667 0L62.6667 65.96L6.10352e-05 65.96L6.10352e-05 67.3634Z"></path><path id="路径 3" fill-rule="evenodd" style="fill:#1A56DB" opacity="0.1" d="M64.0001 67.3634L128 67.3634L128 0L126.667 0L126.667 65.96L64.0001 65.96L64.0001 67.3634Z"></path><path id="路径 4" fill-rule="evenodd" style="fill:#1A56DB" opacity="0.1" d="M128 67.3634L192 67.3634L192 0L190.667 0L190.667 65.96L128 65.96L128 67.3634Z"></path><path id="路径 5" fill-rule="evenodd" style="fill:#1A56DB" opacity="0.1" d="M192 67.3634L256 67.3634L256 0L254.667 0L254.667 65.96L192 65.96L192 67.3634Z"></path><path id="路径 6" fill-rule="evenodd" style="fill:#1A56DB" opacity="0.1" d="M256 67.3634L320 67.3634L320 0L318.667 0L318.667 65.96L256 65.96L256 67.3634Z"></path><path id="路径 7" fill-rule="evenodd" style="fill:#1A56DB" opacity="0.1" d="M320 67.3634L384 67.3634L384 0L382.667 0L382.667 65.96L320 65.96L320 67.3634Z"></path><path id="路径 8" fill-rule="evenodd" style="fill:#E1EFFE" opacity="1" d="M384 0L448 0L448 67.3634L384 67.3634L384 0Z"></path><path id="路径 9" fill-rule="evenodd" style="fill:#E1EFFE" opacity="1" d="M384 67.3634L448 67.3634L448 0L446.667 0L446.667 65.96L384 65.96L384 67.3634Z"></path><path id="路径 10" fill-rule="evenodd" style="fill:#1A56DB" opacity="0.1" d="M448 67.3634L512 67.3634L512 0L510.667 0L510.667 65.96L448 65.96L448 67.3634Z"></path><path id="路径 11" fill-rule="evenodd" style="fill:#1A56DB" opacity="0.1" d="M512 67.3634L576 67.3634L576 0L574.667 0L574.667 65.96L512 65.96L512 67.3634Z"></path><path id="路径 12" fill-rule="evenodd" style="fill:#1A56DB" opacity="0.1" d="M576 67.3634L640 67.3634L640 0L638.667 0L638.667 65.96L576 65.96L576 67.3634Z"></path><path id="路径 13" fill-rule="evenodd" style="fill:#1A56DB" opacity="0.1" d="M640 67.3634L704 67.3634L704 0L702.667 0L702.667 65.96L640 65.96L640 67.3634Z"></path><path id="路径 14" fill-rule="evenodd" style="fill:#1A56DB" opacity="0.1" d="M704 67.3634L768 67.3634L768 0L766.667 0L766.667 65.96L704 65.96L704 67.3634Z"></path><path id="路径 15" fill-rule="evenodd" style="fill:#E1EFFE" opacity="1" d="M768 0L832 0L832 67.3634L768 67.3634L768 0Z"></path><path id="路径 16" fill-rule="evenodd" style="fill:#E1EFFE" opacity="1" d="M768 67.3634L832 67.3634L832 0L830.667 0L830.667 65.96L768 65.96L768 67.3634Z"></path><path id="路径 17" fill-rule="evenodd" style="fill:#1A56DB" opacity="0.1" d="M832 67.3634L896 67.3634L896 0L894.667 0L894.667 65.96L832 65.96L832 67.3634Z"></path><path id="路径 18" fill-rule="evenodd" style="fill:#1A56DB" opacity="0.1" d="M896 67.3634L960 67.3634L960 0L958.667 0L958.667 65.96L896 65.96L896 67.3634Z"></path><path id="路径 19" fill-rule="evenodd" style="fill:#1A56DB" opacity="0.1" d="M960 67.3634L1024 67.3634L1024 0L1022.67 0L1022.67 65.96L960 65.96L960 67.3634Z"></path><path id="路径 20" fill-rule="evenodd" style="fill:#1A56DB" opacity="0.1" d="M1024 67.3634L1088 67.3634L1088 0L1086.67 0L1086.67 65.96L1024 65.96L1024 67.3634Z"></path><path id="路径 21" fill-rule="evenodd" style="fill:#1A56DB" opacity="0.1" d="M1088 67.3634L1152 67.3634L1152 0L1150.67 0L1150.67 65.96L1088 65.96L1088 67.3634Z"></path><path id="路径 22" fill-rule="evenodd" style="fill:#1A56DB" opacity="0.1" d="M1152 67.3634L1216 67.3634L1216 0L1214.67 0L1214.67 65.96L1152 65.96L1152 67.3634Z"></path><path id="路径 23" fill-rule="evenodd" style="fill:#1A56DB" opacity="0.1" d="M1216 67.3634L1280 67.3634L1280 0L1278.67 0L1278.67 65.96L1216 65.96L1216 67.3634Z"></path><path id="路径 24" fill-rule="evenodd" style="fill:#1A56DB" opacity="0.1" d="M1280 67.3634L1344 67.3634L1344 0L1342.67 0L1342.67 65.96L1280 65.96L1280 67.3634Z"></path><path id="路径 25" fill-rule="evenodd" style="fill:#1A56DB" opacity="0.1" d="M1344 67.3634L1408 67.3634L1408 0L1406.67 0L1406.67 65.96L1344 65.96L1344 67.3634Z"></path><path id="路径 26" fill-rule="evenodd" style="fill:#E1EFFE" opacity="1" d="M1408 0L1472 0L1472 67.3634L1408 67.3634L1408 0Z"></path><path id="路径 27" fill-rule="evenodd" style="fill:#E1EFFE" opacity="1" d="M1408 67.3634L1472 67.3634L1472 0L1470.67 0L1470.67 65.96L1408 65.96L1408 67.3634Z"></path><path id="路径 28" fill-rule="evenodd" style="fill:#1A56DB" opacity="0.1" d="M1472 67.3634L1536 67.3634L1536 0L1534.67 0L1534.67 65.96L1472 65.96L1472 67.3634Z"></path><path id="路径 29" fill-rule="evenodd" style="fill:#1A56DB" opacity="0.1" d="M1536 67.3634L1600 67.3634L1600 0L1598.67 0L1598.67 65.96L1536 65.96L1536 67.3634Z"></path><path id="路径 30" fill-rule="evenodd" style="fill:#1A56DB" opacity="0.1" d="M1600 67.3634L1664 67.3634L1664 0L1662.67 0L1662.67 65.96L1600 65.96L1600 67.3634Z"></path><path id="路径 31" fill-rule="evenodd" style="fill:#1A56DB" opacity="0.1" d="M1664 67.3634L1728 67.3634L1728 0L1726.67 0L1726.67 65.96L1664 65.96L1664 67.3634Z"></path><path id="路径 32" fill-rule="evenodd" style="fill:#1A56DB" opacity="0.1" d="M1728 67.3634L1792 67.3634L1792 0L1790.67 0L1790.67 65.96L1728 65.96L1728 67.3634Z"></path><path id="路径 33" fill-rule="evenodd" style="fill:#1A56DB" opacity="0.1" d="M1792 67.3634L1856 67.3634L1856 0L1854.67 0L1854.67 65.96L1792 65.96L1792 67.3634Z"></path><path id="路径 34" fill-rule="evenodd" style="fill:#1A56DB" opacity="0.1" d="M1856 67.3634L1920 67.3634L1920 0L1918.67 0L1918.67 65.96L1856 65.96L1856 67.3634Z"></path><path id="路径 35" fill-rule="evenodd" style="fill:#1A56DB" opacity="0.1" d="M6.10352e-05 134.727L64.0001 134.727L64.0001 67.3635L62.6667 67.3635L62.6667 133.324L6.10352e-05 133.324L6.10352e-05 134.727Z"></path><path id="路径 36" fill-rule="evenodd" style="fill:#1A56DB" opacity="0.1" d="M64.0001 134.727L128 134.727L128 67.3635L126.667 67.3635L126.667 133.324L64.0001 133.324L64.0001 134.727Z"></path><path id="路径 37" fill-rule="evenodd" style="fill:#1A56DB" opacity="0.1" d="M128 134.727L192 134.727L192 67.3635L190.667 67.3635L190.667 133.324L128 133.324L128 134.727Z"></path><path id="路径 38" fill-rule="evenodd" style="fill:#1A56DB" opacity="0.1" d="M192 134.727L256 134.727L256 67.3635L254.667 67.3635L254.667 133.324L192 133.324L192 134.727Z"></path><path id="路径 39" fill-rule="evenodd" style="fill:#E1EFFE" opacity="1" d="M256 67.3635L320 67.3635L320 134.727L256 134.727L256 67.3635Z"></path><path id="路径 40" fill-rule="evenodd" style="fill:#E1EFFE" opacity="1" d="M256 134.727L320 134.727L320 67.3635L318.667 67.3635L318.667 133.324L256 133.324L256 134.727Z"></path><path id="路径 41" fill-rule="evenodd" style="fill:#1A56DB" opacity="0.1" d="M320 134.727L384 134.727L384 67.3635L382.667 67.3635L382.667 133.324L320 133.324L320 134.727Z"></path><path id="路径 42" fill-rule="evenodd" style="fill:#1A56DB" opacity="0.1" d="M384 134.727L448 134.727L448 67.3635L446.667 67.3635L446.667 133.324L384 133.324L384 134.727Z"></path><path id="路径 43" fill-rule="evenodd" style="fill:#1A56DB" opacity="0.1" d="M448 134.727L512 134.727L512 67.3635L510.667 67.3635L510.667 133.324L448 133.324L448 134.727Z"></path><path id="路径 44" fill-rule="evenodd" style="fill:#E1EFFE" opacity="1" d="M512 67.3635L576 67.3635L576 134.727L512 134.727L512 67.3635Z"></path><path id="路径 45" fill-rule="evenodd" style="fill:#E1EFFE" opacity="1" d="M512 134.727L576 134.727L576 67.3635L574.667 67.3635L574.667 133.324L512 133.324L512 134.727Z"></path><path id="路径 46" fill-rule="evenodd" style="fill:#1A56DB" opacity="0.1" d="M576 134.727L640 134.727L640 67.3635L638.667 67.3635L638.667 133.324L576 133.324L576 134.727Z"></path><path id="路径 47" fill-rule="evenodd" style="fill:#1A56DB" opacity="0.1" d="M640 134.727L704 134.727L704 67.3635L702.667 67.3635L702.667 133.324L640 133.324L640 134.727Z"></path><path id="路径 48" fill-rule="evenodd" style="fill:#1A56DB" opacity="0.1" d="M704 134.727L768 134.727L768 67.3635L766.667 67.3635L766.667 133.324L704 133.324L704 134.727Z"></path><path id="路径 49" fill-rule="evenodd" style="fill:#1A56DB" opacity="0.1" d="M768 134.727L832 134.727L832 67.3635L830.667 67.3635L830.667 133.324L768 133.324L768 134.727Z"></path><path id="路径 50" fill-rule="evenodd" style="fill:#1A56DB" opacity="0.1" d="M832 134.727L896 134.727L896 67.3635L894.667 67.3635L894.667 133.324L832 133.324L832 134.727Z"></path><path id="路径 51" fill-rule="evenodd" style="fill:#1A56DB" opacity="0.1" d="M896 134.727L960 134.727L960 67.3635L958.667 67.3635L958.667 133.324L896 133.324L896 134.727Z"></path><path id="路径 52" fill-rule="evenodd" style="fill:#1A56DB" opacity="0.1" d="M960 134.727L1024 134.727L1024 67.3635L1022.67 67.3635L1022.67 133.324L960 133.324L960 134.727Z"></path><path id="路径 53" fill-rule="evenodd" style="fill:#1A56DB" opacity="0.1" d="M1024 134.727L1088 134.727L1088 67.3635L1086.67 67.3635L1086.67 133.324L1024 133.324L1024 134.727Z"></path><path id="路径 54" fill-rule="evenodd" style="fill:#E1EFFE" opacity="1" d="M1088 67.3635L1152 67.3635L1152 134.727L1088 134.727L1088 67.3635Z"></path><path id="路径 55" fill-rule="evenodd" style="fill:#E1EFFE" opacity="1" d="M1088 134.727L1152 134.727L1152 67.3635L1150.67 67.3635L1150.67 133.324L1088 133.324L1088 134.727Z"></path><path id="路径 56" fill-rule="evenodd" style="fill:#1A56DB" opacity="0.1" d="M1152 134.727L1216 134.727L1216 67.3635L1214.67 67.3635L1214.67 133.324L1152 133.324L1152 134.727Z"></path><path id="路径 57" fill-rule="evenodd" style="fill:#1A56DB" opacity="0.1" d="M1216 134.727L1280 134.727L1280 67.3635L1278.67 67.3635L1278.67 133.324L1216 133.324L1216 134.727Z"></path><path id="路径 58" fill-rule="evenodd" style="fill:#1A56DB" opacity="0.1" d="M1280 134.727L1344 134.727L1344 67.3635L1342.67 67.3635L1342.67 133.324L1280 133.324L1280 134.727Z"></path><path id="路径 59" fill-rule="evenodd" style="fill:#1A56DB" opacity="0.1" d="M1344 134.727L1408 134.727L1408 67.3635L1406.67 67.3635L1406.67 133.324L1344 133.324L1344 134.727Z"></path><path id="路径 60" fill-rule="evenodd" style="fill:#1A56DB" opacity="0.1" d="M1408 134.727L1472 134.727L1472 67.3635L1470.67 67.3635L1470.67 133.324L1408 133.324L1408 134.727Z"></path><path id="路径 61" fill-rule="evenodd" style="fill:#1A56DB" opacity="0.1" d="M1472 134.727L1536 134.727L1536 67.3635L1534.67 67.3635L1534.67 133.324L1472 133.324L1472 134.727Z"></path><path id="路径 62" fill-rule="evenodd" style="fill:#1A56DB" opacity="0.1" d="M1536 134.727L1600 134.727L1600 67.3635L1598.67 67.3635L1598.67 133.324L1536 133.324L1536 134.727Z"></path><path id="路径 63" fill-rule="evenodd" style="fill:#1A56DB" opacity="0.1" d="M1600 134.727L1664 134.727L1664 67.3635L1662.67 67.3635L1662.67 133.324L1600 133.324L1600 134.727Z"></path><path id="路径 64" fill-rule="evenodd" style="fill:#1A56DB" opacity="0.1" d="M1664 134.727L1728 134.727L1728 67.3635L1726.67 67.3635L1726.67 133.324L1664 133.324L1664 134.727Z"></path><path id="路径 65" fill-rule="evenodd" style="fill:#1A56DB" opacity="0.1" d="M1728 134.727L1792 134.727L1792 67.3635L1790.67 67.3635L1790.67 133.324L1728 133.324L1728 134.727Z"></path><path id="路径 66" fill-rule="evenodd" style="fill:#E1EFFE" opacity="1" d="M1792 67.3635L1856 67.3635L1856 134.727L1792 134.727L1792 67.3635Z"></path><path id="路径 67" fill-rule="evenodd" style="fill:#E1EFFE" opacity="1" d="M1792 134.727L1856 134.727L1856 67.3635L1854.67 67.3635L1854.67 133.324L1792 133.324L1792 134.727Z"></path><path id="路径 68" fill-rule="evenodd" style="fill:#1A56DB" opacity="0.1" d="M1856 134.727L1920 134.727L1920 67.3635L1918.67 67.3635L1918.67 133.324L1856 133.324L1856 134.727Z"></path><path id="路径 69" fill-rule="evenodd" style="fill:#1A56DB" opacity="0.1" d="M6.10352e-05 193.183L64.0001 193.183L64.0001 134.727L62.6667 134.727L62.6667 191.964L6.10352e-05 191.964L6.10352e-05 193.183Z"></path><path id="路径 70" fill-rule="evenodd" style="fill:#E1EFFE" opacity="1" d="M64.0001 134.727L128 134.727L128 193.183L64.0001 193.183L64.0001 134.727Z"></path><path id="路径 71" fill-rule="evenodd" style="fill:#E1EFFE" opacity="1" d="M64.0001 193.183L128 193.183L128 134.727L126.667 134.727L126.667 191.964L64.0001 191.964L64.0001 193.183Z"></path><path id="路径 72" fill-rule="evenodd" style="fill:#1A56DB" opacity="0.1" d="M128 193.183L192 193.183L192 134.727L190.667 134.727L190.667 191.964L128 191.964L128 193.183Z"></path><path id="路径 73" fill-rule="evenodd" style="fill:#1A56DB" opacity="0.1" d="M192 193.183L256 193.183L256 134.727L254.667 134.727L254.667 191.964L192 191.964L192 193.183Z"></path><path id="路径 74" fill-rule="evenodd" style="fill:#1A56DB" opacity="0.1" d="M256 193.183L320 193.183L320 134.727L318.667 134.727L318.667 191.964L256 191.964L256 193.183Z"></path><path id="路径 75" fill-rule="evenodd" style="fill:#1A56DB" opacity="0.1" d="M320 193.183L384 193.183L384 134.727L382.667 134.727L382.667 191.964L320 191.964L320 193.183Z"></path><path id="路径 76" fill-rule="evenodd" style="fill:#1A56DB" opacity="0.1" d="M384 193.183L448 193.183L448 134.727L446.667 134.727L446.667 191.964L384 191.964L384 193.183Z"></path><path id="路径 77" fill-rule="evenodd" style="fill:#1A56DB" opacity="0.1" d="M448 193.183L512 193.183L512 134.727L510.667 134.727L510.667 191.964L448 191.964L448 193.183Z"></path><path id="路径 78" fill-rule="evenodd" style="fill:#1A56DB" opacity="0.1" d="M512 193.183L576 193.183L576 134.727L574.667 134.727L574.667 191.964L512 191.964L512 193.183Z"></path><path id="路径 79" fill-rule="evenodd" style="fill:#1A56DB" opacity="0.1" d="M576 193.183L640 193.183L640 134.727L638.667 134.727L638.667 191.964L576 191.964L576 193.183Z"></path><path id="路径 80" fill-rule="evenodd" style="fill:#1A56DB" opacity="0.1" d="M640 193.183L704 193.183L704 134.727L702.667 134.727L702.667 191.964L640 191.964L640 193.183Z"></path><path id="路径 81" fill-rule="evenodd" style="fill:#1A56DB" opacity="0.1" d="M704 193.183L768 193.183L768 134.727L766.667 134.727L766.667 191.964L704 191.964L704 193.183Z"></path><path id="路径 82" fill-rule="evenodd" style="fill:#1A56DB" opacity="0.1" d="M768 193.183L832 193.183L832 134.727L830.667 134.727L830.667 191.964L768 191.964L768 193.183Z"></path><path id="路径 83" fill-rule="evenodd" style="fill:#E1EFFE" opacity="1" d="M832 134.727L896 134.727L896 193.183L832 193.183L832 134.727Z"></path><path id="路径 84" fill-rule="evenodd" style="fill:#E1EFFE" opacity="1" d="M832 193.183L896 193.183L896 134.727L894.667 134.727L894.667 191.964L832 191.964L832 193.183Z"></path><path id="路径 85" fill-rule="evenodd" style="fill:#1A56DB" opacity="0.1" d="M896 193.183L960 193.183L960 134.727L958.667 134.727L958.667 191.964L896 191.964L896 193.183Z"></path><path id="路径 86" fill-rule="evenodd" style="fill:#1A56DB" opacity="0.1" d="M960 193.183L1024 193.183L1024 134.727L1022.67 134.727L1022.67 191.964L960 191.964L960 193.183Z"></path><path id="路径 87" fill-rule="evenodd" style="fill:#1A56DB" opacity="0.1" d="M1024 193.183L1088 193.183L1088 134.727L1086.67 134.727L1086.67 191.964L1024 191.964L1024 193.183Z"></path><path id="路径 88" fill-rule="evenodd" style="fill:#1A56DB" opacity="0.1" d="M1088 193.183L1152 193.183L1152 134.727L1150.67 134.727L1150.67 191.964L1088 191.964L1088 193.183Z"></path><path id="路径 89" fill-rule="evenodd" style="fill:#1A56DB" opacity="0.1" d="M1152 193.183L1216 193.183L1216 134.727L1214.67 134.727L1214.67 191.964L1152 191.964L1152 193.183Z"></path><path id="路径 90" fill-rule="evenodd" style="fill:#1A56DB" opacity="0.1" d="M1216 193.183L1280 193.183L1280 134.727L1278.67 134.727L1278.67 191.964L1216 191.964L1216 193.183Z"></path><path id="路径 91" fill-rule="evenodd" style="fill:#1A56DB" opacity="0.1" d="M1280 193.183L1344 193.183L1344 134.727L1342.67 134.727L1342.67 191.964L1280 191.964L1280 193.183Z"></path><path id="路径 92" fill-rule="evenodd" style="fill:#1A56DB" opacity="0.1" d="M1344 193.183L1408 193.183L1408 134.727L1406.67 134.727L1406.67 191.964L1344 191.964L1344 193.183Z"></path><path id="路径 93" fill-rule="evenodd" style="fill:#E1EFFE" opacity="1" d="M1408 134.727L1472 134.727L1472 193.183L1408 193.183L1408 134.727Z"></path><path id="路径 94" fill-rule="evenodd" style="fill:#E1EFFE" opacity="1" d="M1408 193.183L1472 193.183L1472 134.727L1470.67 134.727L1470.67 191.964L1408 191.964L1408 193.183Z"></path><path id="路径 95" fill-rule="evenodd" style="fill:#1A56DB" opacity="0.1" d="M1472 193.183L1536 193.183L1536 134.727L1534.67 134.727L1534.67 191.964L1472 191.964L1472 193.183Z"></path><path id="路径 96" fill-rule="evenodd" style="fill:#1A56DB" opacity="0.1" d="M1536 193.183L1600 193.183L1600 134.727L1598.67 134.727L1598.67 191.964L1536 191.964L1536 193.183Z"></path><path id="路径 97" fill-rule="evenodd" style="fill:#1A56DB" opacity="0.1" d="M1600 193.183L1664 193.183L1664 134.727L1662.67 134.727L1662.67 191.964L1600 191.964L1600 193.183Z"></path><path id="路径 98" fill-rule="evenodd" style="fill:#1A56DB" opacity="0.1" d="M1664 193.183L1728 193.183L1728 134.727L1726.67 134.727L1726.67 191.964L1664 191.964L1664 193.183Z"></path><path id="路径 99" fill-rule="evenodd" style="fill:#1A56DB" opacity="0.1" d="M1728 193.183L1792 193.183L1792 134.727L1790.67 134.727L1790.67 191.964L1728 191.964L1728 193.183Z"></path><path id="路径 100" fill-rule="evenodd" style="fill:#1A56DB" opacity="0.1" d="M1792 193.183L1856 193.183L1856 134.727L1854.67 134.727L1854.67 191.964L1792 191.964L1792 193.183Z"></path><path id="路径 101" fill-rule="evenodd" style="fill:#1A56DB" opacity="0.1" d="M1856 193.183L1920 193.183L1920 134.727L1918.67 134.727L1918.67 191.964L1856 191.964L1856 193.183Z"></path><path id="路径 102" fill-rule="evenodd" style="fill:#1A56DB" opacity="0.1" d="M6.10352e-05 260.547L64.0001 260.547L64.0001 193.183L62.6667 193.183L62.6667 259.142L6.10352e-05 259.142L6.10352e-05 260.547Z"></path><path id="路径 103" fill-rule="evenodd" style="fill:#1A56DB" opacity="0.1" d="M64.0001 260.547L128 260.547L128 193.183L126.667 193.183L126.667 259.142L64.0001 259.142L64.0001 260.547Z"></path><path id="路径 104" fill-rule="evenodd" style="fill:#1A56DB" opacity="0.1" d="M128 260.547L192 260.547L192 193.183L190.667 193.183L190.667 259.142L128 259.142L128 260.547Z"></path><path id="路径 105" fill-rule="evenodd" style="fill:#E1EFFE" opacity="1" d="M192 193.183L256 193.183L256 260.547L192 260.547L192 193.183Z"></path><path id="路径 106" fill-rule="evenodd" style="fill:#E1EFFE" opacity="1" d="M192 260.547L256 260.547L256 193.183L254.667 193.183L254.667 259.142L192 259.142L192 260.547Z"></path><path id="路径 107" fill-rule="evenodd" style="fill:#1A56DB" opacity="0.1" d="M256 260.547L320 260.547L320 193.183L318.667 193.183L318.667 259.142L256 259.142L256 260.547Z"></path><path id="路径 108" fill-rule="evenodd" style="fill:#1A56DB" opacity="0.1" d="M320 260.547L384 260.547L384 193.183L382.667 193.183L382.667 259.142L320 259.142L320 260.547Z"></path><path id="路径 109" fill-rule="evenodd" style="fill:#1A56DB" opacity="0.1" d="M384 260.547L448 260.547L448 193.183L446.667 193.183L446.667 259.142L384 259.142L384 260.547Z"></path><path id="路径 110" fill-rule="evenodd" style="fill:#1A56DB" opacity="0.1" d="M448 260.547L512 260.547L512 193.183L510.667 193.183L510.667 259.142L448 259.142L448 260.547Z"></path><path id="路径 111" fill-rule="evenodd" style="fill:#1A56DB" opacity="0.1" d="M512 260.547L576 260.547L576 193.183L574.667 193.183L574.667 259.142L512 259.142L512 260.547Z"></path><path id="路径 112" fill-rule="evenodd" style="fill:#1A56DB" opacity="0.1" d="M576 260.547L640 260.547L640 193.183L638.667 193.183L638.667 259.142L576 259.142L576 260.547Z"></path><path id="路径 113" fill-rule="evenodd" style="fill:#1A56DB" opacity="0.1" d="M640 260.547L704 260.547L704 193.183L702.667 193.183L702.667 259.142L640 259.142L640 260.547Z"></path><path id="路径 114" fill-rule="evenodd" style="fill:#E1EFFE" opacity="1" d="M704 193.183L768 193.183L768 260.547L704 260.547L704 193.183Z"></path><path id="路径 115" fill-rule="evenodd" style="fill:#E1EFFE" opacity="1" d="M704 260.547L768 260.547L768 193.183L766.667 193.183L766.667 259.142L704 259.142L704 260.547Z"></path><path id="路径 116" fill-rule="evenodd" style="fill:#1A56DB" opacity="0.1" d="M768 260.547L832 260.547L832 193.183L830.667 193.183L830.667 259.142L768 259.142L768 260.547Z"></path><path id="路径 117" fill-rule="evenodd" style="fill:#1A56DB" opacity="0.1" d="M832 260.547L896 260.547L896 193.183L894.667 193.183L894.667 259.142L832 259.142L832 260.547Z"></path><path id="路径 118" fill-rule="evenodd" style="fill:#1A56DB" opacity="0.1" d="M896 260.547L960 260.547L960 193.183L958.667 193.183L958.667 259.142L896 259.142L896 260.547Z"></path><path id="路径 119" fill-rule="evenodd" style="fill:#1A56DB" opacity="0.1" d="M960 260.547L1024 260.547L1024 193.183L1022.67 193.183L1022.67 259.142L960 259.142L960 260.547Z"></path><path id="路径 120" fill-rule="evenodd" style="fill:#1A56DB" opacity="0.1" d="M1024 260.547L1088 260.547L1088 193.183L1086.67 193.183L1086.67 259.142L1024 259.142L1024 260.547Z"></path><path id="路径 121" fill-rule="evenodd" style="fill:#1A56DB" opacity="0.1" d="M1088 260.547L1152 260.547L1152 193.183L1150.67 193.183L1150.67 259.142L1088 259.142L1088 260.547Z"></path><path id="路径 122" fill-rule="evenodd" style="fill:#1A56DB" opacity="0.1" d="M1152 260.547L1216 260.547L1216 193.183L1214.67 193.183L1214.67 259.142L1152 259.142L1152 260.547Z"></path><path id="路径 123" fill-rule="evenodd" style="fill:#1A56DB" opacity="0.1" d="M1216 260.547L1280 260.547L1280 193.183L1278.67 193.183L1278.67 259.142L1216 259.142L1216 260.547Z"></path><path id="路径 124" fill-rule="evenodd" style="fill:#1A56DB" opacity="0.1" d="M1280 260.547L1344 260.547L1344 193.183L1342.67 193.183L1342.67 259.142L1280 259.142L1280 260.547Z"></path><path id="路径 125" fill-rule="evenodd" style="fill:#E1EFFE" opacity="1" d="M1344 193.183L1408 193.183L1408 260.547L1344 260.547L1344 193.183Z"></path><path id="路径 126" fill-rule="evenodd" style="fill:#E1EFFE" opacity="1" d="M1344 260.547L1408 260.547L1408 193.183L1406.67 193.183L1406.67 259.142L1344 259.142L1344 260.547Z"></path><path id="路径 127" fill-rule="evenodd" style="fill:#1A56DB" opacity="0.1" d="M1408 260.547L1472 260.547L1472 193.183L1470.67 193.183L1470.67 259.142L1408 259.142L1408 260.547Z"></path><path id="路径 128" fill-rule="evenodd" style="fill:#1A56DB" opacity="0.1" d="M1472 260.547L1536 260.547L1536 193.183L1534.67 193.183L1534.67 259.142L1472 259.142L1472 260.547Z"></path><path id="路径 129" fill-rule="evenodd" style="fill:#1A56DB" opacity="0.1" d="M1536 260.547L1600 260.547L1600 193.183L1598.67 193.183L1598.67 259.142L1536 259.142L1536 260.547Z"></path><path id="路径 130" fill-rule="evenodd" style="fill:#1A56DB" opacity="0.1" d="M1600 260.547L1664 260.547L1664 193.183L1662.67 193.183L1662.67 259.142L1600 259.142L1600 260.547Z"></path><path id="路径 131" fill-rule="evenodd" style="fill:#1A56DB" opacity="0.1" d="M1664 260.547L1728 260.547L1728 193.183L1726.67 193.183L1726.67 259.142L1664 259.142L1664 260.547Z"></path><path id="路径 132" fill-rule="evenodd" style="fill:#1A56DB" opacity="0.1" d="M1728 260.547L1792 260.547L1792 193.183L1790.67 193.183L1790.67 259.142L1728 259.142L1728 260.547Z"></path><path id="路径 133" fill-rule="evenodd" style="fill:#1A56DB" opacity="0.1" d="M1792 260.547L1856 260.547L1856 193.183L1854.67 193.183L1854.67 259.142L1792 259.142L1792 260.547Z"></path><path id="路径 134" fill-rule="evenodd" style="fill:#1A56DB" opacity="0.1" d="M1856 260.547L1920 260.547L1920 193.183L1918.67 193.183L1918.67 259.142L1856 259.142L1856 260.547Z"></path><path id="路径 135" fill-rule="evenodd" style="fill:#1A56DB" opacity="0.1" d="M6.10352e-05 327.909L64.0001 327.909L64.0001 260.547L62.6667 260.547L62.6667 326.506L6.10352e-05 326.506L6.10352e-05 327.909Z"></path><path id="路径 136" fill-rule="evenodd" style="fill:#1A56DB" opacity="0.1" d="M64.0001 327.909L128 327.909L128 260.547L126.667 260.547L126.667 326.506L64.0001 326.506L64.0001 327.909Z"></path><path id="路径 137" fill-rule="evenodd" style="fill:#1A56DB" opacity="0.1" d="M128 327.909L192 327.909L192 260.547L190.667 260.547L190.667 326.506L128 326.506L128 327.909Z"></path><path id="路径 138" fill-rule="evenodd" style="fill:#1A56DB" opacity="0.1" d="M192 327.909L256 327.909L256 260.547L254.667 260.547L254.667 326.506L192 326.506L192 327.909Z"></path><path id="路径 139" fill-rule="evenodd" style="fill:#1A56DB" opacity="0.1" d="M256 327.909L320 327.909L320 260.547L318.667 260.547L318.667 326.506L256 326.506L256 327.909Z"></path><path id="路径 140" fill-rule="evenodd" style="fill:#1A56DB" opacity="0.1" d="M320 327.909L384 327.909L384 260.547L382.667 260.547L382.667 326.506L320 326.506L320 327.909Z"></path><path id="路径 141" fill-rule="evenodd" style="fill:#1A56DB" opacity="0.1" d="M384 327.909L448 327.909L448 260.547L446.667 260.547L446.667 326.506L384 326.506L384 327.909Z"></path><path id="路径 142" fill-rule="evenodd" style="fill:#1A56DB" opacity="0.1" d="M448 327.909L512 327.909L512 260.547L510.667 260.547L510.667 326.506L448 326.506L448 327.909Z"></path><path id="路径 143" fill-rule="evenodd" style="fill:#1A56DB" opacity="0.1" d="M512 327.909L576 327.909L576 260.547L574.667 260.547L574.667 326.506L512 326.506L512 327.909Z"></path><path id="路径 144" fill-rule="evenodd" style="fill:#E1EFFE" opacity="1" d="M576 260.547L640 260.547L640 327.909L576 327.909L576 260.547Z"></path><path id="路径 145" fill-rule="evenodd" style="fill:#E1EFFE" opacity="1" d="M576 327.909L640 327.909L640 260.547L638.667 260.547L638.667 326.506L576 326.506L576 327.909Z"></path><path id="路径 146" fill-rule="evenodd" style="fill:#1A56DB" opacity="0.1" d="M640 327.909L704 327.909L704 260.547L702.667 260.547L702.667 326.506L640 326.506L640 327.909Z"></path><path id="路径 147" fill-rule="evenodd" style="fill:#1A56DB" opacity="0.1" d="M704 327.909L768 327.909L768 260.547L766.667 260.547L766.667 326.506L704 326.506L704 327.909Z"></path><path id="路径 148" fill-rule="evenodd" style="fill:#1A56DB" opacity="0.1" d="M768 327.909L832 327.909L832 260.547L830.667 260.547L830.667 326.506L768 326.506L768 327.909Z"></path><path id="路径 149" fill-rule="evenodd" style="fill:#1A56DB" opacity="0.1" d="M832 327.909L896 327.909L896 260.547L894.667 260.547L894.667 326.506L832 326.506L832 327.909Z"></path><path id="路径 150" fill-rule="evenodd" style="fill:#1A56DB" opacity="0.1" d="M896 327.909L960 327.909L960 260.547L958.667 260.547L958.667 326.506L896 326.506L896 327.909Z"></path><path id="路径 151" fill-rule="evenodd" style="fill:#1A56DB" opacity="0.1" d="M960 327.909L1024 327.909L1024 260.547L1022.67 260.547L1022.67 326.506L960 326.506L960 327.909Z"></path><path id="路径 152" fill-rule="evenodd" style="fill:#1A56DB" opacity="0.1" d="M1024 327.909L1088 327.909L1088 260.547L1086.67 260.547L1086.67 326.506L1024 326.506L1024 327.909Z"></path><path id="路径 153" fill-rule="evenodd" style="fill:#1A56DB" opacity="0.1" d="M1088 327.909L1152 327.909L1152 260.547L1150.67 260.547L1150.67 326.506L1088 326.506L1088 327.909Z"></path><path id="路径 154" fill-rule="evenodd" style="fill:#1A56DB" opacity="0.1" d="M1152 327.909L1216 327.909L1216 260.547L1214.67 260.547L1214.67 326.506L1152 326.506L1152 327.909Z"></path><path id="路径 155" fill-rule="evenodd" style="fill:#1A56DB" opacity="0.1" d="M1216 327.909L1280 327.909L1280 260.547L1278.67 260.547L1278.67 326.506L1216 326.506L1216 327.909Z"></path><path id="路径 156" fill-rule="evenodd" style="fill:#1A56DB" opacity="0.1" d="M1280 327.909L1344 327.909L1344 260.547L1342.67 260.547L1342.67 326.506L1280 326.506L1280 327.909Z"></path><path id="路径 157" fill-rule="evenodd" style="fill:#1A56DB" opacity="0.1" d="M1344 327.909L1408 327.909L1408 260.547L1406.67 260.547L1406.67 326.506L1344 326.506L1344 327.909Z"></path><path id="路径 158" fill-rule="evenodd" style="fill:#1A56DB" opacity="0.1" d="M1408 327.909L1472 327.909L1472 260.547L1470.67 260.547L1470.67 326.506L1408 326.506L1408 327.909Z"></path><path id="路径 159" fill-rule="evenodd" style="fill:#E1EFFE" opacity="1" d="M1472 260.547L1536 260.547L1536 327.909L1472 327.909L1472 260.547Z"></path><path id="路径 160" fill-rule="evenodd" style="fill:#E1EFFE" opacity="1" d="M1472 327.909L1536 327.909L1536 260.547L1534.67 260.547L1534.67 326.506L1472 326.506L1472 327.909Z"></path><path id="路径 161" fill-rule="evenodd" style="fill:#1A56DB" opacity="0.1" d="M1536 327.909L1600 327.909L1600 260.547L1598.67 260.547L1598.67 326.506L1536 326.506L1536 327.909Z"></path><path id="路径 162" fill-rule="evenodd" style="fill:#1A56DB" opacity="0.1" d="M1600 327.909L1664 327.909L1664 260.547L1662.67 260.547L1662.67 326.506L1600 326.506L1600 327.909Z"></path><path id="路径 163" fill-rule="evenodd" style="fill:#1A56DB" opacity="0.1" d="M1664 327.909L1728 327.909L1728 260.547L1726.67 260.547L1726.67 326.506L1664 326.506L1664 327.909Z"></path><path id="路径 164" fill-rule="evenodd" style="fill:#1A56DB" opacity="0.1" d="M1728 327.909L1792 327.909L1792 260.547L1790.67 260.547L1790.67 326.506L1728 326.506L1728 327.909Z"></path><path id="路径 165" fill-rule="evenodd" style="fill:#1A56DB" opacity="0.1" d="M1792 327.909L1856 327.909L1856 260.547L1854.67 260.547L1854.67 326.506L1792 326.506L1792 327.909Z"></path><path id="路径 166" fill-rule="evenodd" style="fill:#1A56DB" opacity="0.1" d="M1856 327.909L1920 327.909L1920 260.547L1918.67 260.547L1918.67 326.506L1856 326.506L1856 327.909Z"></path><path id="路径 167" fill-rule="evenodd" style="fill:#1A56DB" opacity="0.1" d="M6.10352e-05 395.273L64.0001 395.273L64.0001 327.909L62.6667 327.909L62.6667 393.869L6.10352e-05 393.869L6.10352e-05 395.273Z"></path><path id="路径 168" fill-rule="evenodd" style="fill:#1A56DB" opacity="0.1" d="M64.0001 395.273L128 395.273L128 327.909L126.667 327.909L126.667 393.869L64.0001 393.869L64.0001 395.273Z"></path><path id="路径 169" fill-rule="evenodd" style="fill:#1A56DB" opacity="0.1" d="M128 395.273L192 395.273L192 327.909L190.667 327.909L190.667 393.869L128 393.869L128 395.273Z"></path><path id="路径 170" fill-rule="evenodd" style="fill:#1A56DB" opacity="0.1" d="M192 395.273L256 395.273L256 327.909L254.667 327.909L254.667 393.869L192 393.869L192 395.273Z"></path><path id="路径 171" fill-rule="evenodd" style="fill:#E1EFFE" opacity="1" d="M256 327.909L320 327.909L320 395.273L256 395.273L256 327.909Z"></path><path id="路径 172" fill-rule="evenodd" style="fill:#E1EFFE" opacity="1" d="M256 395.273L320 395.273L320 327.909L318.667 327.909L318.667 393.869L256 393.869L256 395.273Z"></path><path id="路径 173" fill-rule="evenodd" style="fill:#1A56DB" opacity="0.1" d="M320 395.273L384 395.273L384 327.909L382.667 327.909L382.667 393.869L320 393.869L320 395.273Z"></path><path id="路径 174" fill-rule="evenodd" style="fill:#1A56DB" opacity="0.1" d="M384 395.273L448 395.273L448 327.909L446.667 327.909L446.667 393.869L384 393.869L384 395.273Z"></path><path id="路径 175" fill-rule="evenodd" style="fill:#1A56DB" opacity="0.1" d="M448 395.273L512 395.273L512 327.909L510.667 327.909L510.667 393.869L448 393.869L448 395.273Z"></path><path id="路径 176" fill-rule="evenodd" style="fill:#1A56DB" opacity="0.1" d="M512 395.273L576 395.273L576 327.909L574.667 327.909L574.667 393.869L512 393.869L512 395.273Z"></path><path id="路径 177" fill-rule="evenodd" style="fill:#1A56DB" opacity="0.1" d="M576 395.273L640 395.273L640 327.909L638.667 327.909L638.667 393.869L576 393.869L576 395.273Z"></path><path id="路径 178" fill-rule="evenodd" style="fill:#1A56DB" opacity="0.1" d="M640 395.273L704 395.273L704 327.909L702.667 327.909L702.667 393.869L640 393.869L640 395.273Z"></path><path id="路径 179" fill-rule="evenodd" style="fill:#1A56DB" opacity="0.1" d="M704 395.273L768 395.273L768 327.909L766.667 327.909L766.667 393.869L704 393.869L704 395.273Z"></path><path id="路径 180" fill-rule="evenodd" style="fill:#1A56DB" opacity="0.1" d="M768 395.273L832 395.273L832 327.909L830.667 327.909L830.667 393.869L768 393.869L768 395.273Z"></path><path id="路径 181" fill-rule="evenodd" style="fill:#E1EFFE" opacity="1" d="M832 327.909L896 327.909L896 395.273L832 395.273L832 327.909Z"></path><path id="路径 182" fill-rule="evenodd" style="fill:#E1EFFE" opacity="1" d="M832 395.273L896 395.273L896 327.909L894.667 327.909L894.667 393.869L832 393.869L832 395.273Z"></path><path id="路径 183" fill-rule="evenodd" style="fill:#1A56DB" opacity="0.1" d="M896 395.273L960 395.273L960 327.909L958.667 327.909L958.667 393.869L896 393.869L896 395.273Z"></path><path id="路径 184" fill-rule="evenodd" style="fill:#1A56DB" opacity="0.1" d="M960 395.273L1024 395.273L1024 327.909L1022.67 327.909L1022.67 393.869L960 393.869L960 395.273Z"></path><path id="路径 185" fill-rule="evenodd" style="fill:#1A56DB" opacity="0.1" d="M1024 395.273L1088 395.273L1088 327.909L1086.67 327.909L1086.67 393.869L1024 393.869L1024 395.273Z"></path><path id="路径 186" fill-rule="evenodd" style="fill:#1A56DB" opacity="0.1" d="M1088 395.273L1152 395.273L1152 327.909L1150.67 327.909L1150.67 393.869L1088 393.869L1088 395.273Z"></path><path id="路径 187" fill-rule="evenodd" style="fill:#1A56DB" opacity="0.1" d="M1152 395.273L1216 395.273L1216 327.909L1214.67 327.909L1214.67 393.869L1152 393.869L1152 395.273Z"></path><path id="路径 188" fill-rule="evenodd" style="fill:#1A56DB" opacity="0.1" d="M1216 395.273L1280 395.273L1280 327.909L1278.67 327.909L1278.67 393.869L1216 393.869L1216 395.273Z"></path><path id="路径 189" fill-rule="evenodd" style="fill:#E1EFFE" opacity="1" d="M1280 327.909L1344 327.909L1344 395.273L1280 395.273L1280 327.909Z"></path><path id="路径 190" fill-rule="evenodd" style="fill:#E1EFFE" opacity="1" d="M1280 395.273L1344 395.273L1344 327.909L1342.67 327.909L1342.67 393.869L1280 393.869L1280 395.273Z"></path><path id="路径 191" fill-rule="evenodd" style="fill:#1A56DB" opacity="0.1" d="M1344 395.273L1408 395.273L1408 327.909L1406.67 327.909L1406.67 393.869L1344 393.869L1344 395.273Z"></path><path id="路径 192" fill-rule="evenodd" style="fill:#1A56DB" opacity="0.1" d="M1408 395.273L1472 395.273L1472 327.909L1470.67 327.909L1470.67 393.869L1408 393.869L1408 395.273Z"></path><path id="路径 193" fill-rule="evenodd" style="fill:#1A56DB" opacity="0.1" d="M1472 395.273L1536 395.273L1536 327.909L1534.67 327.909L1534.67 393.869L1472 393.869L1472 395.273Z"></path><path id="路径 194" fill-rule="evenodd" style="fill:#1A56DB" opacity="0.1" d="M1536 395.273L1600 395.273L1600 327.909L1598.67 327.909L1598.67 393.869L1536 393.869L1536 395.273Z"></path><path id="路径 195" fill-rule="evenodd" style="fill:#1A56DB" opacity="0.1" d="M1600 395.273L1664 395.273L1664 327.909L1662.67 327.909L1662.67 393.869L1600 393.869L1600 395.273Z"></path><path id="路径 196" fill-rule="evenodd" style="fill:#1A56DB" opacity="0.1" d="M1664 395.273L1728 395.273L1728 327.909L1726.67 327.909L1726.67 393.869L1664 393.869L1664 395.273Z"></path><path id="路径 197" fill-rule="evenodd" style="fill:#1A56DB" opacity="0.1" d="M1728 395.273L1792 395.273L1792 327.909L1790.67 327.909L1790.67 393.869L1728 393.869L1728 395.273Z"></path><path id="路径 198" fill-rule="evenodd" style="fill:#1A56DB" opacity="0.1" d="M1792 395.273L1856 395.273L1856 327.909L1854.67 327.909L1854.67 393.869L1792 393.869L1792 395.273Z"></path><path id="路径 199" fill-rule="evenodd" style="fill:#1A56DB" opacity="0.1" d="M1856 395.273L1920 395.273L1920 327.909L1918.67 327.909L1918.67 393.869L1856 393.869L1856 395.273Z"></path><path id="路径 200" fill-rule="evenodd" style="fill:#1A56DB" opacity="0.1" d="M6.10352e-05 462.636L64.0001 462.636L64.0001 395.273L62.6667 395.273L62.6667 461.233L6.10352e-05 461.233L6.10352e-05 462.636Z"></path><path id="路径 201" fill-rule="evenodd" style="fill:#E1EFFE" opacity="1" d="M64.0001 395.273L128 395.273L128 462.636L64.0001 462.636L64.0001 395.273Z"></path><path id="路径 202" fill-rule="evenodd" style="fill:#E1EFFE" opacity="1" d="M64.0001 462.636L128 462.636L128 395.273L126.667 395.273L126.667 461.233L64.0001 461.233L64.0001 462.636Z"></path><path id="路径 203" fill-rule="evenodd" style="fill:#1A56DB" opacity="0.1" d="M128 462.636L192 462.636L192 395.273L190.667 395.273L190.667 461.233L128 461.233L128 462.636Z"></path><path id="路径 204" fill-rule="evenodd" style="fill:#E1EFFE" opacity="1" d="M192 462.636L256 462.636L256 395.273L254.667 395.273L254.667 461.233L192 461.233L192 462.636Z"></path><path id="路径 205" fill-rule="evenodd" style="fill:#1A56DB" opacity="0.1" d="M256 462.636L320 462.636L320 395.273L318.667 395.273L318.667 461.233L256 461.233L256 462.636Z"></path><path id="路径 206" fill-rule="evenodd" style="fill:#1A56DB" opacity="0.1" d="M320 462.636L384 462.636L384 395.273L382.667 395.273L382.667 461.233L320 461.233L320 462.636Z"></path><path id="路径 207" fill-rule="evenodd" style="fill:#1A56DB" opacity="0.1" d="M384 462.636L448 462.636L448 395.273L446.667 395.273L446.667 461.233L384 461.233L384 462.636Z"></path><path id="路径 208" fill-rule="evenodd" style="fill:#E1EFFE" opacity="1" d="M448 395.273L512 395.273L512 462.636L448 462.636L448 395.273Z"></path><path id="路径 209" fill-rule="evenodd" style="fill:#E1EFFE" opacity="1" d="M448 462.636L512 462.636L512 395.273L510.667 395.273L510.667 461.233L448 461.233L448 462.636Z"></path><path id="路径 210" fill-rule="evenodd" style="fill:#1A56DB" opacity="0.1" d="M512 462.636L576 462.636L576 395.273L574.667 395.273L574.667 461.233L512 461.233L512 462.636Z"></path><path id="路径 211" fill-rule="evenodd" style="fill:#1A56DB" opacity="0.1" d="M576 462.636L640 462.636L640 395.273L638.667 395.273L638.667 461.233L576 461.233L576 462.636Z"></path><path id="路径 212" fill-rule="evenodd" style="fill:#1A56DB" opacity="0.1" d="M640 462.636L704 462.636L704 395.273L702.667 395.273L702.667 461.233L640 461.233L640 462.636Z"></path><path id="路径 213" fill-rule="evenodd" style="fill:#1A56DB" opacity="0.1" d="M704 462.636L768 462.636L768 395.273L766.667 395.273L766.667 461.233L704 461.233L704 462.636Z"></path><path id="路径 214" fill-rule="evenodd" style="fill:#1A56DB" opacity="0.1" d="M768 462.636L832 462.636L832 395.273L830.667 395.273L830.667 461.233L768 461.233L768 462.636Z"></path><path id="路径 215" fill-rule="evenodd" style="fill:#1A56DB" opacity="0.1" d="M832 462.636L896 462.636L896 395.273L894.667 395.273L894.667 461.233L832 461.233L832 462.636Z"></path><path id="路径 216" fill-rule="evenodd" style="fill:#E1EFFE" opacity="1" d="M896 462.636L960 462.636L960 395.273L958.667 395.273L958.667 461.233L896 461.233L896 462.636Z"></path><path id="路径 217" fill-rule="evenodd" style="fill:#E1EFFE" opacity="1" d="M960 395.273L1024 395.273L1024 462.636L960 462.636L960 395.273Z"></path><path id="路径 218" fill-rule="evenodd" style="fill:#E1EFFE" opacity="1" d="M960 462.636L1024 462.636L1024 395.273L1022.67 395.273L1022.67 461.233L960 461.233L960 462.636Z"></path><path id="路径 219" fill-rule="evenodd" style="fill:#1A56DB" opacity="0.1" d="M1024 462.636L1088 462.636L1088 395.273L1086.67 395.273L1086.67 461.233L1024 461.233L1024 462.636Z"></path><path id="路径 220" fill-rule="evenodd" style="fill:#1A56DB" opacity="0.1" d="M1088 462.636L1152 462.636L1152 395.273L1150.67 395.273L1150.67 461.233L1088 461.233L1088 462.636Z"></path><path id="路径 221" fill-rule="evenodd" style="fill:#1A56DB" opacity="0.1" d="M1152 462.636L1216 462.636L1216 395.273L1214.67 395.273L1214.67 461.233L1152 461.233L1152 462.636Z"></path><path id="路径 222" fill-rule="evenodd" style="fill:#1A56DB" opacity="0.1" d="M1216 462.636L1280 462.636L1280 395.273L1278.67 395.273L1278.67 461.233L1216 461.233L1216 462.636Z"></path><path id="路径 223" fill-rule="evenodd" style="fill:#1A56DB" opacity="0.1" d="M1280 462.636L1344 462.636L1344 395.273L1342.67 395.273L1342.67 461.233L1280 461.233L1280 462.636Z"></path><path id="路径 224" fill-rule="evenodd" style="fill:#1A56DB" opacity="0.1" d="M1344 462.636L1408 462.636L1408 395.273L1406.67 395.273L1406.67 461.233L1344 461.233L1344 462.636Z"></path><path id="路径 225" fill-rule="evenodd" style="fill:#1A56DB" opacity="0.1" d="M1408 462.636L1472 462.636L1472 395.273L1470.67 395.273L1470.67 461.233L1408 461.233L1408 462.636Z"></path><path id="路径 226" fill-rule="evenodd" style="fill:#1A56DB" opacity="0.1" d="M1472 462.636L1536 462.636L1536 395.273L1534.67 395.273L1534.67 461.233L1472 461.233L1472 462.636Z"></path><path id="路径 227" fill-rule="evenodd" style="fill:#E1EFFE" opacity="1" d="M1536 395.273L1600 395.273L1600 462.636L1536 462.636L1536 395.273Z"></path><g opacity="1"  transform="translate(0 395.273193359375)"><path id="路径 228" fill-rule="evenodd" style="fill:#E1EFFE" opacity="1" d="M1536 67.3627L1600 67.3627L1600 0L1598.67 0L1598.67 65.9597L1536 65.9597L1536 67.3627Z"></path><path id="路径 229" fill-rule="evenodd" style="fill:#1A56DB" opacity="0.1" d="M1600 67.3627L1664 67.3627L1664 0L1662.67 0L1662.67 65.9597L1600 65.9597L1600 67.3627Z"></path><path id="路径 230" fill-rule="evenodd" style="fill:#1A56DB" opacity="0.1" d="M1664 67.3627L1728 67.3627L1728 0L1726.67 0L1726.67 65.9597L1664 65.9597L1664 67.3627Z"></path><path id="路径 231" fill-rule="evenodd" style="fill:#1A56DB" opacity="0.1" d="M1728 67.3627L1792 67.3627L1792 0L1790.67 0L1790.67 65.9597L1728 65.9597L1728 67.3627Z"></path><path id="路径 232" fill-rule="evenodd" style="fill:#1A56DB" opacity="0.1" d="M1792 67.3627L1856 67.3627L1856 0L1854.67 0L1854.67 65.9597L1792 65.9597L1792 67.3627Z"></path><path id="路径 233" fill-rule="evenodd" style="fill:#1A56DB" opacity="0.1" d="M1856 67.3627L1920 67.3627L1920 0L1918.67 0L1918.67 65.9597L1856 65.9597L1856 67.3627Z"></path><path id="路径 234" fill-rule="evenodd" style="fill:#1A56DB" opacity="0.1" d="M6.10352e-05 134.726L64.0001 134.726L64.0001 67.3625L62.6667 67.3625L62.6667 133.323L6.10352e-05 133.323L6.10352e-05 134.726Z"></path><path id="路径 235" fill-rule="evenodd" style="fill:#1A56DB" opacity="0.1" d="M64.0001 134.726L128 134.726L128 67.3625L126.667 67.3625L126.667 133.323L64.0001 133.323L64.0001 134.726Z"></path><path id="路径 236" fill-rule="evenodd" style="fill:#1A56DB" opacity="0.1" d="M128 134.726L192 134.726L192 67.3625L190.667 67.3625L190.667 133.323L128 133.323L128 134.726Z"></path><path id="路径 237" fill-rule="evenodd" style="fill:#1A56DB" opacity="0.1" d="M192 134.726L256 134.726L256 67.3625L254.667 67.3625L254.667 133.323L192 133.323L192 134.726Z"></path><path id="路径 238" fill-rule="evenodd" style="fill:#1A56DB" opacity="0.1" d="M256 134.726L320 134.726L320 67.3625L318.667 67.3625L318.667 133.323L256 133.323L256 134.726Z"></path><path id="路径 239" fill-rule="evenodd" style="fill:#1A56DB" opacity="0.1" d="M320 134.726L384 134.726L384 67.3625L382.667 67.3625L382.667 133.323L320 133.323L320 134.726Z"></path><path id="路径 240" fill-rule="evenodd" style="fill:#1A56DB" opacity="0.1" d="M384 134.726L448 134.726L448 67.3625L446.667 67.3625L446.667 133.323L384 133.323L384 134.726Z"></path><path id="路径 241" fill-rule="evenodd" style="fill:#1A56DB" opacity="0.1" d="M448 134.726L512 134.726L512 67.3625L510.667 67.3625L510.667 133.323L448 133.323L448 134.726Z"></path><path id="路径 242" fill-rule="evenodd" style="fill:#1A56DB" opacity="0.1" d="M512 134.726L576 134.726L576 67.3625L574.667 67.3625L574.667 133.323L512 133.323L512 134.726Z"></path><path id="路径 243" fill-rule="evenodd" style="fill:#1A56DB" opacity="0.1" d="M576 134.726L640 134.726L640 67.3625L638.667 67.3625L638.667 133.323L576 133.323L576 134.726Z"></path><path id="路径 244" fill-rule="evenodd" style="fill:#1A56DB" opacity="0.1" d="M640 134.726L704 134.726L704 67.3625L702.667 67.3625L702.667 133.323L640 133.323L640 134.726Z"></path><path id="路径 245" fill-rule="evenodd" style="fill:#1A56DB" opacity="0.1" d="M704 134.726L768 134.726L768 67.3625L766.667 67.3625L766.667 133.323L704 133.323L704 134.726Z"></path><path id="路径 246" fill-rule="evenodd" style="fill:#1A56DB" opacity="0.1" d="M768 134.726L832 134.726L832 67.3625L830.667 67.3625L830.667 133.323L768 133.323L768 134.726Z"></path><path id="路径 247" fill-rule="evenodd" style="fill:#1A56DB" opacity="0.1" d="M832 134.726L896 134.726L896 67.3625L894.667 67.3625L894.667 133.323L832 133.323L832 134.726Z"></path><path id="路径 248" fill-rule="evenodd" style="fill:#1A56DB" opacity="0.1" d="M896 134.726L960 134.726L960 67.3625L958.667 67.3625L958.667 133.323L896 133.323L896 134.726Z"></path><path id="路径 249" fill-rule="evenodd" style="fill:#1A56DB" opacity="0.1" d="M960 134.726L1024 134.726L1024 67.3625L1022.67 67.3625L1022.67 133.323L960 133.323L960 134.726Z"></path><path id="路径 250" fill-rule="evenodd" style="fill:#1A56DB" opacity="0.1" d="M1024 134.726L1088 134.726L1088 67.3625L1086.67 67.3625L1086.67 133.323L1024 133.323L1024 134.726Z"></path><path id="路径 251" fill-rule="evenodd" style="fill:#1A56DB" opacity="0.1" d="M1088 134.726L1152 134.726L1152 67.3625L1150.67 67.3625L1150.67 133.323L1088 133.323L1088 134.726Z"></path><path id="路径 252" fill-rule="evenodd" style="fill:#1A56DB" opacity="0.1" d="M1152 134.726L1216 134.726L1216 67.3625L1214.67 67.3625L1214.67 133.323L1152 133.323L1152 134.726Z"></path><path id="路径 253" fill-rule="evenodd" style="fill:#1A56DB" opacity="0.1" d="M1216 134.726L1280 134.726L1280 67.3625L1278.67 67.3625L1278.67 133.323L1216 133.323L1216 134.726Z"></path><path id="路径 254" fill-rule="evenodd" style="fill:#1A56DB" opacity="0.1" d="M1280 134.726L1344 134.726L1344 67.3625L1342.67 67.3625L1342.67 133.323L1280 133.323L1280 134.726Z"></path><path id="路径 255" fill-rule="evenodd" style="fill:#1A56DB" opacity="0.1" d="M1344 134.726L1408 134.726L1408 67.3625L1406.67 67.3625L1406.67 133.323L1344 133.323L1344 134.726Z"></path><path id="路径 256" fill-rule="evenodd" style="fill:#1A56DB" opacity="0.1" d="M1408 134.726L1472 134.726L1472 67.3625L1470.67 67.3625L1470.67 133.323L1408 133.323L1408 134.726Z"></path><path id="路径 257" fill-rule="evenodd" style="fill:#1A56DB" opacity="0.1" d="M1472 134.726L1536 134.726L1536 67.3625L1534.67 67.3625L1534.67 133.323L1472 133.323L1472 134.726Z"></path><path id="路径 258" fill-rule="evenodd" style="fill:#1A56DB" opacity="0.1" d="M1536 134.726L1600 134.726L1600 67.3625L1598.67 67.3625L1598.67 133.323L1536 133.323L1536 134.726Z"></path><path id="路径 259" fill-rule="evenodd" style="fill:#1A56DB" opacity="0.1" d="M1600 134.726L1664 134.726L1664 67.3625L1662.67 67.3625L1662.67 133.323L1600 133.323L1600 134.726Z"></path><path id="路径 260" fill-rule="evenodd" style="fill:#1A56DB" opacity="0.1" d="M1664 134.726L1728 134.726L1728 67.3625L1726.67 67.3625L1726.67 133.323L1664 133.323L1664 134.726Z"></path><path id="路径 261" fill-rule="evenodd" style="fill:#1A56DB" opacity="0.1" d="M1728 134.726L1792 134.726L1792 67.3625L1790.67 67.3625L1790.67 133.323L1728 133.323L1728 134.726Z"></path><path id="路径 262" fill-rule="evenodd" style="fill:#1A56DB" opacity="0.1" d="M1792 134.726L1856 134.726L1856 67.3625L1854.67 67.3625L1854.67 133.323L1792 133.323L1792 134.726Z"></path><path id="路径 263" fill-rule="evenodd" style="fill:#1A56DB" opacity="0.1" d="M1856 134.726L1920 134.726L1920 67.3625L1918.67 67.3625L1918.67 133.323L1856 133.323L1856 134.726Z"></path></g></g><path id="矩形 1" fill-rule="evenodd" fill="url(#linear_0)" opacity="1" d="M0 400L1920 400L1920 0L0 0L0 400Z"></path></g><defs><linearGradient id="linear_0" x1="50%" y1="0%" x2="51%" y2="100%" gradientUnits="objectBoundingBox"><stop offset="0" stop-color="#EAF4FE" stop-opacity="1" /><stop offset="1" stop-color="#FFFFFF" stop-opacity="0.88" /></linearGradient></defs></svg>