<svg xmlns="http://www.w3.org/2000/svg" xmlns:xlink="http://www.w3.org/1999/xlink" width="194.99212646484375" height="183.96160888671875" viewBox="0 0 194.99212646484375 183.96160888671875" fill="none"><g opacity="1"  transform="translate(2.5 2.49932861328125)"><path id="path4190" fill-rule="evenodd" style="fill:#000000" opacity="1" d="M83.1907 39.9186L82.706 63.1405C84.8601 63.0543 89.3721 63.0831 93.405 64.2886C96.2734 65.1785 98.8807 66.6711 100.407 69.0248C102.879 72.8712 102.928 76.8038 101.812 80.1909C100.45 84.2956 97.3031 87.5966 94.7158 88.9457C93.1554 89.7782 91.0959 90.18 89.0164 90.3235C86.5381 90.5244 84.037 90.3522 82.4336 90.18L82.64 106.972L105.312 106.857C105.768 106.857 106.204 107.029 106.522 107.345C106.84 107.69 107.015 108.12 107.007 108.579C107.007 108.579 106.932 114.148 108.051 119.085C108.573 121.382 109.307 123.563 110.564 124.797C112.391 126.577 114.883 127.208 117.155 126.864C119.41 126.491 121.455 125.113 122.321 122.817C122.949 121.123 123.33 119.114 123.571 117.133C124.134 112.512 123.904 108.063 123.904 108.063C123.878 107.517 124.076 107.001 124.446 106.627C124.816 106.226 125.33 106.025 125.863 106.025L152.292 106.225C153.417 106.225 154.32 107.144 154.314 108.264L154.125 176.723C154.119 177.958 153.115 178.962 151.879 178.962C151.879 178.962 114.424 178.991 76.9665 178.876C39.5116 178.761 2.05669 178.56 2.05669 178.56C1.50883 178.56 0.9839 178.331 0.59954 177.958C0.212312 177.556 -0.00284004 177.039 2.8316e-05 176.494L1.03259 39.5169C1.03259 39.1437 1.18748 38.7704 1.45711 38.4834C1.7296 38.225 2.09677 38.0817 2.47826 38.0817L82.1897 38.8853C82.4594 38.8853 82.7175 39 82.9068 39.201C83.0961 39.4019 83.1965 39.6602 83.1907 39.9186ZM81.1456 40.9232L3.91244 40.9521C3.93538 55.4191 4.11608 174.427 4.11608 174.427C12.4343 174.398 44.7033 174.341 76.9752 174.341C109.026 174.341 141.077 174.456 149.659 174.485C149.759 162.888 150.207 110.273 150.207 110.273L127.811 109.928C127.805 111.794 127.722 114.665 127.34 117.593C127.042 119.889 126.563 122.214 125.82 124.137C124.432 127.754 121.251 129.964 117.706 130.481C114.367 130.969 110.716 129.993 108.054 127.352C106.407 125.716 105.286 122.903 104.629 119.86C103.857 116.272 103.665 112.397 103.622 110.244L81.0911 110.129C80.2306 110.129 79.5308 109.412 79.5222 108.551L79.4906 88.5152C79.4877 88.0846 79.6742 87.6826 80.004 87.3956C80.3339 87.1086 80.7698 86.9937 81.1944 87.0511C81.1944 87.0511 85.038 87.7402 88.8242 87.5105C90.5022 87.3957 92.1716 87.1372 93.4366 86.477C95.5677 85.3862 98.135 82.6882 99.2909 79.3298C100.215 76.6316 100.212 73.5027 98.2668 70.4026C97.0736 68.4794 94.9567 67.36 92.6793 66.6424C87.5851 65.0063 81.6276 65.4943 81.6276 65.4943C81.3006 65.523 80.9764 65.4082 80.7383 65.2072C80.5003 64.9776 80.3684 64.6617 80.377 64.3172L81.1456 40.9232Z"></path><path  id="path4190" style="fill:#000000; opacity:1;" d="M85.6902 39.9707L85.2055 63.1926L82.706 63.1405L82.6061 60.6425L82.706 63.1405L82.6061 60.6425Q89.0719 60.384 94.1211 61.8934Q99.9311 63.6956 102.504 67.6649Q106.515 73.9043 104.187 80.9731Q101.837 88.052 95.8717 91.1625Q93.3016 92.5337 89.1885 92.8176Q85.9938 93.0768 82.1666 92.6657L82.4336 90.18L84.9334 90.1492L85.1398 106.941L82.64 106.972L82.6273 104.472L105.299 104.357C106.422 104.357 107.494 104.788 108.282 105.57L108.321 105.608L108.358 105.648L108.321 105.608L108.358 105.648Q109.538 106.925 109.506 108.626Q109.436 113.885 110.489 118.533Q111.275 121.992 112.316 123.014Q114.141 124.792 116.78 124.392Q119.206 123.99 119.982 121.934Q120.707 119.98 121.09 116.831Q121.626 112.425 121.407 108.191Q121.315 106.235 122.671 104.867L124.446 106.627L122.607 104.934L124.446 106.627L122.607 104.934Q123.905 103.525 125.863 103.525L152.311 103.726C154.802 103.725 156.827 105.767 156.814 108.276L156.625 176.73C156.613 179.348 154.492 181.462 151.879 181.462L76.9636 181.376L76.9659 181.376L2.04614 181.06Q0.206385 181.06 -1.14188 179.751L-1.17178 179.722L-1.20069 179.692L-1.17178 179.722L-1.20069 179.692Q-2.50968 178.334 -2.49994 176.481L-1.46733 39.498Q-1.46741 37.9453 -0.36508 36.7717L-0.315482 36.7189L-0.26291 36.6691C0.477252 35.9674 1.45834 35.5817 2.47826 35.5817L82.215 36.3855Q83.6889 36.3853 84.7264 37.4866Q85.7219 38.5431 85.6901 39.9741L85.6902 39.9707ZM80.6913 39.8631Q80.6776 40.4806 81.0872 40.9153Q81.53 41.3853 82.1645 41.3852L2.47826 40.5817C2.73829 40.5817 2.98842 40.4765 3.17712 40.2976L1.45711 38.4834L3.27929 40.195Q3.5326 39.9253 3.53252 39.5357L2.49999 176.507Q2.50094 176.328 2.39977 176.223L0.59954 177.958L2.39977 176.223L0.59954 177.958L2.34096 176.164Q2.23425 176.06 2.06723 176.06L76.9659 176.376L76.9693 176.376L151.879 176.462C151.739 176.462 151.626 176.572 151.625 176.717L151.814 108.251C151.813 108.513 152.031 108.725 152.273 108.725L125.863 108.525Q126.098 108.525 126.285 108.321L126.254 108.355L126.285 108.321L126.254 108.355L126.222 108.388Q126.413 108.194 126.401 107.934Q126.641 112.599 126.053 117.435Q125.599 121.167 124.66 123.699Q122.867 128.453 117.53 129.336Q112.433 130.108 108.811 126.581Q106.725 124.531 105.613 119.638Q104.428 114.411 104.507 108.532Q104.501 108.842 104.686 109.042L106.522 107.345L104.686 109.042L106.522 107.345L104.762 109.12C104.91 109.267 105.103 109.357 105.324 109.357L80.1707 109.485L79.8991 87.3934L82.7006 87.6943Q86.0593 88.055 88.8443 87.8294Q91.8911 87.6191 93.5599 86.729Q97.7295 84.5548 99.4376 79.4087Q101.021 74.6033 98.3089 70.3848Q96.7205 67.9347 92.689 66.6839Q88.4386 65.4133 82.8059 65.6385L80.1511 65.7446L82.8059 65.6385L80.1511 65.7446L80.6913 39.8664L80.6913 39.8631ZM81.1466 43.4232L3.91337 43.4521L3.91244 40.9521L6.41243 40.9481L3.91244 40.9521L6.41243 40.9483L6.51351 106.968L6.61608 174.423L4.11608 174.427L4.10745 171.927L4.11608 174.427L4.11313 171.927L76.9722 171.841L149.664 171.985L149.659 174.485L147.159 174.463L149.659 174.485L147.159 174.463L147.424 143.479L147.707 110.252L150.207 110.273L150.168 112.773L127.772 112.428L127.811 109.928L130.311 109.936L127.811 109.928L130.311 109.936Q130.298 114.246 129.82 117.916Q129.27 122.144 128.152 125.038Q125.531 131.867 118.066 132.954Q111.167 133.963 106.293 129.127Q103.465 126.317 102.185 120.388Q101.236 115.974 101.123 110.294L103.622 110.244L103.609 112.744L81.0784 112.629C78.8458 112.629 77.0448 110.821 77.0223 108.576L76.9906 88.5191C76.9829 87.3714 77.4875 86.2715 78.3629 85.5097Q79.7198 84.3289 81.5294 84.5736L81.5826 84.5808L81.6355 84.5903L81.5826 84.5808L81.6355 84.5903Q85.185 85.2266 88.6729 85.0151Q91.1607 84.8448 92.2798 84.2607Q95.5207 82.6019 96.927 78.5162Q98.155 74.9288 96.149 71.7311Q95.0892 70.0229 91.928 69.0269Q87.2938 67.5385 81.8316 67.9859Q80.3126 68.1193 79.1259 67.1177L79.0625 67.0642L79.0028 67.0066L79.0625 67.0642L79.0028 67.0066Q77.8371 65.8823 77.8778 64.2548L78.647 40.8411L81.1456 40.9232L81.1466 43.4232ZM83.7291 38.4223L82.8762 64.3797Q82.8905 63.8096 82.4739 63.4078L80.7383 65.2072L82.4739 63.4078L80.7383 65.2072L82.3508 63.2967Q81.9477 62.9566 81.4235 63.0026Q87.8764 62.4741 93.4306 64.258Q98.3603 65.8113 100.385 69.0741Q103.658 74.2918 101.655 80.1434Q99.5927 86.1347 94.5933 88.6933Q92.5463 89.7617 88.9756 90.0059Q84.891 90.2537 80.7532 89.5119L81.1944 87.0511L80.7532 89.5119L81.1944 87.0511L80.8593 89.5285Q81.2938 89.5873 81.6451 89.2815C81.8697 89.0861 81.9925 88.7962 81.9906 88.5112L82.0221 108.526C82.0171 108.029 81.5878 107.629 81.1039 107.629L106.073 107.757L106.122 110.194Q106.225 115.393 107.073 119.332Q108.04 123.814 109.814 125.577Q112.916 128.654 117.345 128.007Q121.912 127.341 123.488 123.236Q124.389 120.903 124.861 117.27Q125.299 113.914 125.311 109.921L125.319 107.39L125.311 109.921L125.319 107.39L152.728 107.812L152.424 143.522L152.138 176.989L152.159 174.506L152.137 176.989L76.9781 176.841L1.61988 176.93L4.12471 176.927L1.61989 176.936L1.51351 106.976L1.40861 38.453L1.41244 40.9561L1.40847 38.453L81.1447 38.4232L83.7291 38.4223Z"></path><path id="path4192" fill-rule="evenodd" style="fill:#000000" opacity="1" d="M2.26883 110.301C1.71524 110.301 1.25923 109.842 1.25636 109.297C1.25349 108.751 1.70095 108.292 2.25454 108.292L26.7903 107.661C27.0313 105.565 27.6193 101.288 28.738 97.3559C29.6157 94.2845 30.8635 91.414 32.4238 89.7779C35.1975 86.85 38.9235 85.6733 42.4631 85.7881C46.5562 85.9317 50.351 87.8548 52.3072 90.8114C53.6123 92.7633 54.4326 95.5188 54.8973 98.3606C55.4251 101.604 55.5026 104.934 55.4797 107.115L81.0223 106.283C81.6333 106.254 82.227 106.484 82.6659 106.914C83.1076 107.345 83.3571 107.919 83.36 108.551L83.2653 131.055C83.2711 132.174 82.3818 133.093 81.2603 133.15C81.2603 133.15 76.278 133.265 71.8866 134.758C69.9791 135.418 68.1578 136.307 67.0678 137.657C65.4128 139.723 64.7271 142.249 65.0513 144.632C65.3754 147.014 66.6633 149.282 68.9063 150.889C70.0737 151.722 71.6915 152.181 73.335 152.439C77.1385 153.071 81.1141 152.669 81.1141 152.669C81.5099 152.612 81.9057 152.755 82.2012 153.013C82.4995 153.272 82.6687 153.645 82.6687 154.047L82.2814 176.608C82.2814 177.182 81.8311 177.613 81.2775 177.613C80.7211 177.613 80.2708 177.182 80.2708 176.608L79.9122 155.597C78.2744 155.712 75.5523 155.826 72.8905 155.453C70.7335 155.166 68.6339 154.564 67.0763 153.53C63.9499 151.464 62.1371 148.392 61.6007 145.149C61.0528 141.819 61.8903 138.317 64.1133 135.36C65.5704 133.437 67.9684 132.031 70.5729 131.083C73.6506 129.935 77.0038 129.39 79.0805 129.16L78.8509 110.876L53.2595 111.622C52.6313 111.651 52.0261 111.392 51.593 110.933C51.1598 110.474 50.9362 109.871 50.985 109.239C50.985 109.239 51.4209 104.015 50.7009 98.9921C50.3797 96.7819 49.8662 94.5714 48.8795 93.0214C47.6146 91.0408 45.0302 89.8066 42.2852 89.6343C39.7467 89.4908 37.0361 90.2372 34.9852 92.2752C33.6887 93.5669 32.7107 95.8631 31.9276 98.3317C30.2812 103.47 29.5927 109.268 29.5927 109.268C29.5153 110.015 28.8872 110.588 28.1328 110.588L2.26883 110.301Z"></path><path  id="path4192" style="fill:#000000; opacity:1;" d="M2.26883 112.801C0.33753 112.801 -1.23345 111.241 -1.2436 109.31C-1.2538 107.371 0.315356 105.792 2.25454 105.792L2.25454 108.292L2.19022 105.793L26.726 105.161L26.7903 107.661L24.3067 107.375L26.7903 107.661L24.3067 107.375Q24.9974 101.368 26.3334 96.6719Q28.0187 90.7746 30.6147 88.0525Q35.3481 83.056 42.5441 83.2894Q50.5129 83.5689 54.3922 89.4319Q56.4814 92.5565 57.3645 97.9571Q58.0329 102.065 57.9795 107.142L55.4797 107.115L55.3982 104.617L80.9409 103.784C82.2122 103.724 83.4826 104.213 84.4167 105.13Q85.8509 106.528 85.86 108.539L85.7653 131.065C85.7779 133.506 83.8494 135.521 81.3881 135.647L81.353 135.649L81.3178 135.65L81.353 135.649L81.3178 135.65Q76.7192 135.755 72.6911 137.125Q69.9431 138.076 69.0124 139.228Q67.1547 141.548 67.5285 144.295Q67.91 147.1 70.3626 148.857Q71.4132 149.607 73.7232 149.97Q77.2189 150.55 80.8628 150.182L81.1141 152.669L80.7553 150.195C81.8755 150.033 82.9947 150.386 83.8468 151.131C84.686 151.858 85.1687 152.925 85.1687 154.047L84.7811 176.651Q84.7814 180.113 81.2775 180.113Q79.8324 180.113 78.8111 179.107Q77.7708 178.082 77.7708 176.608L77.4126 155.639L79.9122 155.597L80.0871 158.091L79.9122 155.597L80.0871 158.091Q75.8267 158.389 72.5434 157.929Q68.3416 157.37 65.6942 155.613Q60.1963 151.979 59.1342 145.556Q58.0901 139.211 62.1151 133.858Q64.5817 130.602 69.7184 128.734Q73.7328 127.236 78.8057 126.675L79.0805 129.16L76.5807 129.192L76.3511 110.907L78.8509 110.876L78.9238 113.374L53.3324 114.121C52.0148 114.181 50.7074 113.638 49.7742 112.648C48.8619 111.681 48.39 110.373 48.4924 109.047Q48.906 104.09 48.2262 99.3468Q47.7184 95.8529 46.7705 94.3639Q45.4777 92.3396 42.1287 92.1294Q38.8643 91.9449 36.7474 94.0485Q35.5217 95.2697 34.3106 99.0876Q32.7358 104.002 32.0753 109.563L32.0753 109.563C31.8696 111.548 30.1656 113.088 28.1328 113.088L2.24109 112.801L2.26883 112.801ZM2.29657 107.802L28.1328 108.088C27.604 108.088 27.1607 108.484 27.1102 108.973L27.1102 108.973Q27.8274 102.935 29.5446 97.5758Q31.1258 92.5913 33.223 90.5019Q36.921 86.8271 42.4418 87.1392Q48.3249 87.5084 50.9884 91.6789Q52.5121 94.0724 53.1756 98.6374Q53.9358 103.941 53.4775 109.432C53.4837 109.353 53.4662 109.275 53.4117 109.218C53.3457 109.148 53.2415 109.12 53.1866 109.123L81.3188 108.302L81.6087 131.396L79.3552 131.645Q74.8991 132.138 71.4273 133.433Q67.6765 134.797 66.1115 136.863Q63.3707 140.508 64.0672 144.741Q64.7734 149.011 68.4585 151.447Q70.1446 152.566 73.2376 152.977Q76.0009 153.365 79.7374 153.103L82.3669 152.919L79.7374 153.103L82.3669 152.919L82.7708 176.608Q82.7708 175.989 82.3199 175.545Q81.8814 175.113 81.2775 175.113Q79.7814 175.113 79.7818 176.565L80.1687 154.047C80.1687 154.376 80.3161 154.688 80.5555 154.895C80.8027 155.111 81.148 155.19 81.4729 155.143L81.4193 155.151L81.3653 155.156Q77.058 155.592 72.9469 154.909Q69.4712 154.363 67.4501 152.922Q63.2461 149.909 62.5741 144.969Q61.9112 140.096 65.1232 136.085Q66.9541 133.819 71.0821 132.391Q75.8368 130.774 81.2028 130.651L81.2603 133.15L81.2028 130.651L81.2603 133.15L81.1325 130.653C80.9253 130.664 80.7643 130.86 80.7654 131.044L80.86 108.562Q80.8604 108.646 80.9151 108.699C80.9739 108.757 81.0573 108.784 81.1038 108.782L52.9523 109.699L52.9798 107.089Q53.0287 102.443 52.4301 98.764Q51.722 94.4339 50.2223 92.1909Q47.764 88.4755 42.382 88.2868Q37.4322 88.1263 34.233 91.5032Q32.4876 93.3335 31.1426 98.0399Q29.9181 102.344 29.274 107.946L29.0259 110.104L29.274 107.946L29.0259 110.104L2.28671 110.792L2.25454 110.792C3.08705 110.792 3.76071 110.116 3.75633 109.284C3.75202 108.464 3.08869 107.801 2.26883 107.801L2.29657 107.802Z"></path><path id="path4194" fill-rule="evenodd" style="fill:#000000" opacity="1" d="M184.461 36.6748C184.943 36.9619 185.106 37.5646 184.828 38.0526C184.547 38.5405 183.933 38.6843 183.451 38.4259C183.451 38.4259 132.939 9.779 123.124 4.21037L116.776 17.2134C119.06 18.2754 122.975 20.3995 126.101 23.3848C128.445 25.6237 130.321 28.3794 130.963 31.4795C131.987 36.4453 130.019 41.0092 126.649 44.1379C123.259 47.2954 118.44 48.9889 113.957 48.2426C112.827 48.0704 111.189 47.439 109.436 46.5492C107.153 45.3723 104.629 43.8224 102.914 42.7316L95.6509 55.5336L118.684 69.1395C119.197 69.4553 119.567 69.9432 119.708 70.5173C119.851 71.0914 119.754 71.7227 119.441 72.2107C119.441 72.2107 116.481 76.9182 114.958 82.3147C114.315 84.5823 113.917 86.9649 114.186 89.1751C114.556 92.189 116.243 94.3417 118.5 95.3176C120.835 96.3223 123.715 96.1215 126.288 94.5714C127.917 93.5955 129.489 91.787 130.9 89.8638C134.009 85.5869 136.281 80.5924 136.281 80.5924C136.493 80.1044 136.901 79.7313 137.403 79.5877C137.905 79.4155 138.447 79.5017 138.894 79.7887L157.518 91.5861L188.127 43.0758C188.419 42.6166 189.039 42.4731 189.512 42.7602C189.985 43.0472 190.132 43.6787 189.839 44.1379L159.38 94.6289C159.156 95.0021 158.798 95.2603 158.382 95.3751C157.969 95.4612 157.53 95.3751 157.168 95.1741L138.725 83.9223C137.758 85.9029 136.063 89.1463 133.998 92.0741C132.294 94.514 130.321 96.6956 128.327 97.9299C124.587 100.255 120.362 100.484 116.917 99.0492C113.397 97.5853 110.655 94.3991 110.016 89.7203C109.648 86.9934 110.056 84.0082 110.822 81.1665C111.84 77.4062 113.486 73.9332 114.576 71.8665L91.38 58.318C90.2957 57.6865 89.9256 56.3087 90.548 55.218L100.171 38.3971C100.484 37.8517 101.012 37.4499 101.629 37.3064C102.245 37.1628 102.894 37.3064 103.416 37.6509C103.416 37.6509 106.909 40.062 110.297 41.9565C111.98 42.8751 113.61 43.7361 114.674 43.9084C117.869 44.4537 121.294 43.2194 123.738 40.9805C126.09 38.8276 127.561 35.7275 126.899 32.3117C126.454 29.9867 125.008 27.9774 123.29 26.2838C119.189 22.2365 113.478 19.9403 113.478 19.9403C112.976 19.7393 112.58 19.3375 112.388 18.8496C112.196 18.3329 112.221 17.7874 112.462 17.2994L120.795 0.966839C121.01 0.536274 121.397 0.220359 121.862 0.0768375C122.327 -0.066684 122.829 -0.00910721 123.25 0.249231L184.461 36.6748Z"></path><path  id="path4194" style="fill:#000000; opacity:1;" d="M185.74 34.527C187.386 35.5072 187.948 37.627 187 39.2909Q185.295 42.2508 182.27 40.6293L182.244 40.6152L182.218 40.6006L182.244 40.6152L151.233 23.0277L121.891 6.38494L123.124 4.21037L125.371 5.30709L119.023 18.3101L116.776 17.2134L117.831 14.9466L116.776 17.2134L117.831 14.9466Q123.784 17.716 127.828 21.5766Q132.362 25.9084 133.411 30.9721Q135.194 39.6169 128.35 45.9701C124.39 49.6582 118.888 51.5979 113.546 50.7087Q111.489 50.3955 108.304 48.7783Q105.449 47.3068 101.572 44.8412L102.914 42.7316L105.088 43.9652L97.8253 56.7672L95.6509 55.5336L96.9224 53.3811L119.955 66.9871C121.058 67.6648 121.839 68.7087 122.136 69.9228Q122.624 71.8766 121.546 73.5594Q118.789 77.944 117.364 82.9937Q116.376 86.48 116.668 88.8724Q117.048 91.966 119.492 93.0229Q122.13 94.1578 124.998 92.43Q126.637 91.4483 128.885 88.3848Q131.839 84.3215 134.005 79.5573C134.496 78.4293 135.493 77.5336 136.715 77.1841L137.403 79.5877L136.591 77.2231C137.816 76.8027 139.154 76.9851 140.244 77.6845L158.856 89.4741L157.518 91.5861L155.404 90.252L186.012 41.7418C187.047 40.118 189.171 39.6298 190.808 40.6226C192.481 41.6367 192.998 43.8318 191.948 45.4811L189.839 44.1379L191.98 45.4293L161.521 95.9203C160.972 96.836 160.083 97.4991 159.047 97.785L158.97 97.8062L158.892 97.8225L158.97 97.8062L158.892 97.8225Q157.361 98.1417 155.954 97.3592L155.91 97.3346L137.423 86.0565L138.725 83.9223L140.972 85.0188L138.725 83.9223L140.972 85.0188Q138.586 89.9066 136.041 93.5151Q132.868 98.0589 129.643 100.055Q122.897 104.249 115.955 101.357Q108.669 98.3261 107.539 90.0589Q106.971 85.8457 108.408 80.5159Q109.695 75.7631 112.365 70.7002L114.576 71.8665L113.315 74.0252L90.1191 60.4767C87.8547 59.1579 87.0764 56.2576 88.3767 53.9789L98.0015 37.1556C98.6623 36.0028 99.7698 35.1722 101.062 34.8714C102.349 34.5718 103.689 34.8362 104.792 35.5642Q108.232 37.9376 111.517 39.7746Q114.359 41.3249 115.073 41.4405Q118.834 42.0823 122.049 39.1371Q125.129 36.3178 124.444 32.7878Q124.007 30.5007 121.535 28.0643Q117.79 24.3687 112.545 22.2598Q110.763 21.5465 110.062 19.7657Q109.372 17.912 110.221 16.1926L118.568 -0.169306C119.08 -1.1943 120.009 -1.96749 121.124 -2.31182C122.277 -2.66779 123.528 -2.51265 124.556 -1.88248L185.739 34.5264L185.74 34.527ZM183.182 38.8232L121.944 2.38094C122.141 2.50155 122.379 2.53363 122.6 2.4655C122.789 2.40698 122.943 2.2616 123.022 2.10298L114.704 18.4062Q114.81 18.191 114.714 17.9335Q114.624 17.7065 114.41 17.6207Q120.587 20.1043 125.045 24.5034Q128.626 28.0326 129.353 31.8356Q130.571 38.1151 125.427 42.8238Q120.407 47.423 114.274 46.3762Q112.716 46.124 109.076 44.1385Q105.586 42.1865 102.039 39.7376C102.081 39.7652 102.146 39.7527 102.195 39.7413C102.256 39.7272 102.309 39.6944 102.341 39.6385L92.7194 56.457C92.7792 56.3523 92.7424 56.2184 92.6409 56.1592L117.904 70.9151L116.788 73.0327Q114.376 77.6052 113.236 81.817Q112.061 86.1755 112.493 89.3817Q113.235 94.8099 117.878 96.7415Q122.444 98.6435 127.011 95.8043Q129.359 94.3507 131.955 90.6331Q134.269 87.3527 136.478 82.8258L137.683 80.3579L136.478 82.8258L137.683 80.3579L158.47 93.0399L157.168 95.1741L158.383 92.9891Q158.163 92.8669 157.871 92.9277L158.382 95.3751L157.871 92.9277L158.382 95.3751L157.716 92.9652C157.514 93.0211 157.344 93.1632 157.239 93.3375L187.714 42.8205L187.73 42.7947C187.274 43.5107 187.49 44.4575 188.216 44.8978C188.903 45.3147 189.803 45.0971 190.241 44.4099L158.296 95.0382L137.544 81.893C137.74 82.0183 137.994 82.0278 138.214 81.9524L138.152 81.9735L138.09 81.9914C138.304 81.9302 138.485 81.7939 138.557 81.6275Q136.18 86.8523 132.916 91.3428Q130.071 95.2194 127.578 96.7129Q122.511 99.7652 117.508 97.6124Q112.434 95.4186 111.705 89.4778Q111.291 86.0859 112.552 81.6356Q114.173 75.8924 117.336 70.862Q117.25 70.9955 117.28 71.1118C117.295 71.1755 117.318 71.2347 117.412 71.292L92.2643 56.4367L102.037 39.2112L104.255 40.622Q107.942 42.9662 110.568 44.3201Q113.037 45.5735 114.367 45.7765C118.178 46.411 122.118 44.9417 124.948 42.3057Q129.728 37.8685 128.515 31.9868Q127.782 28.4479 124.375 25.1929Q120.928 21.9018 115.722 19.4801L113.412 18.4058L115.722 19.4801L113.412 18.4058L122.044 0.723721L153.7 18.6785L184.684 36.2513L183.451 38.4259L184.684 36.2513L183.451 38.4259L184.632 36.2226Q183.383 35.5527 182.656 36.8143C182.255 37.5171 182.486 38.4086 183.181 38.8226L183.182 38.8232Z"></path><path id="path4196" fill-rule="evenodd" style="fill:#000000" opacity="1" d="M156.19 101.661C155.789 101.288 155.772 100.657 156.156 100.255C156.537 99.8529 157.174 99.8241 157.576 100.197C157.576 100.197 161.385 103.125 164.635 110.072C165.263 111.421 165.84 112.942 166.347 114.607C166.648 115.583 166.929 116.645 167.136 117.736C167.583 120.147 167.822 122.788 167.799 125.715C167.776 129.275 167.319 133.15 166.459 137.456C166.396 138.03 165.897 138.403 165.346 138.345C164.795 138.288 164.4 137.8 164.463 137.226C164.526 134.815 164.44 132.547 164.308 130.423C164.161 128.012 163.889 125.802 163.576 123.706C163.341 122.185 163.054 120.721 162.788 119.372C162.486 117.822 162.188 116.387 161.858 115.066C161.333 112.913 160.783 111.048 160.186 109.44C158.273 104.245 156.19 101.661 156.19 101.661Z"></path><path  id="path4196" style="fill:#000000; opacity:1;" d="M154.489 103.493C153.061 102.166 153.002 99.935 154.349 98.5267C155.664 97.1418 157.872 97.0596 159.278 98.3659L157.576 100.197L159.099 98.2151L157.576 100.197L159.099 98.2151Q159.435 98.4734 159.933 98.9409Q160.852 99.8037 161.792 100.912Q164.726 104.367 166.899 109.012Q167.93 111.225 168.738 113.878Q169.286 115.65 169.592 117.271Q170.334 121.265 170.299 125.735Q170.263 131.176 168.91 137.946L166.459 137.456L168.944 137.729L166.459 137.456L168.944 137.729Q168.782 139.2 167.627 140.105Q166.51 140.98 165.087 140.832Q163.628 140.68 162.718 139.536Q161.818 138.405 161.978 136.953L164.463 137.226L161.963 137.16L164.463 137.226L161.963 137.16Q162.04 134.239 161.813 130.578Q161.633 127.625 161.104 124.075Q160.869 122.558 160.335 119.857Q159.834 117.277 159.433 115.672Q158.667 112.533 157.842 110.31Q156.722 107.267 155.315 104.869Q154.649 103.733 154.244 103.23L154.244 103.23L156.19 101.661L154.489 103.493ZM157.892 99.83L158.024 99.9523L158.137 100.092L158.137 100.093Q158.775 100.884 159.628 102.339Q161.26 105.121 162.53 108.57Q163.456 111.066 164.284 114.46Q164.717 116.194 165.24 118.887Q165.794 121.691 166.049 123.337Q166.611 127.103 166.803 130.268Q167.044 134.149 166.962 137.291L166.959 137.395L166.962 137.291L166.959 137.395L166.948 137.499Q167.013 136.904 166.63 136.423Q166.234 135.924 165.605 135.859Q165.018 135.798 164.544 136.169Q164.042 136.562 163.974 137.182L163.986 137.073L163.974 137.182L163.986 137.073L164.007 136.966Q165.267 130.665 165.299 125.696Q165.33 121.705 164.68 118.201Q164.425 116.857 163.956 115.336Q163.249 113.019 162.37 111.131Q160.481 107.093 157.981 104.147Q157.223 103.255 156.51 102.586Q156.192 102.287 156.052 102.179L155.96 102.108L156.052 102.179L155.96 102.108L155.874 102.029C156.476 102.588 157.403 102.572 157.963 101.983C158.544 101.375 158.508 100.402 157.892 99.83Z"></path><path id="path4198" fill-rule="evenodd" style="fill:#000000" opacity="1" d="M168.068 93.05C167.517 92.9926 167.11 92.5045 167.165 91.9304C167.216 91.3851 167.707 90.9833 168.26 91.0407C168.26 91.0407 169.695 90.8972 171.912 91.0407C172.658 91.0981 173.455 91.2128 174.327 91.3564C175.098 91.4999 175.893 91.7295 176.705 92.0165C177.218 92.1887 177.737 92.3897 178.236 92.648C179.151 93.136 180.032 93.7102 180.847 94.4278C181.601 95.0593 182.301 95.7482 182.912 96.5806C183.804 97.7575 184.541 98.9918 185.04 100.456C185.307 100.944 185.129 101.546 184.644 101.833C184.157 102.092 183.546 101.92 183.279 101.432C182.155 99.9965 180.72 99.1065 179.24 98.2454C178.4 97.7574 177.528 97.3844 176.685 96.9826C176.097 96.6955 175.526 96.4085 174.969 96.1214C174.02 95.6622 173.142 95.2027 172.308 94.8009C169.844 93.6814 168.068 93.05 168.068 93.05Z"></path><path  id="path4198" style="fill:#000000; opacity:1;" d="M167.809 95.5365M167.809 95.5365Q166.367 95.3862 165.452 94.2638Q164.538 93.1433 164.676 91.6942C164.859 89.7593 166.584 88.3535 168.518 88.5541L168.26 91.0407L168.011 88.5531L168.26 91.0407L168.011 88.5531Q169.651 88.3891 172.073 88.5459Q173.146 88.6283 174.733 88.8895Q176.054 89.1348 177.538 89.6595Q178.568 90.0045 179.386 90.4278Q181.165 91.3766 182.499 92.5518L180.847 94.4278L182.451 92.5108L180.847 94.4278L182.451 92.5108Q183.941 93.758 184.927 95.1014Q186.615 97.3273 187.406 99.6489L185.04 100.456L187.234 99.2565L185.04 100.456L187.234 99.2565Q187.928 100.526 187.525 101.915Q187.135 103.264 185.918 103.985L185.867 104.015L185.815 104.043C184.119 104.941 182.006 104.315 181.085 102.631L183.279 101.432L181.311 102.974L183.279 101.432L181.311 102.974Q180.758 102.267 179.9 101.628Q179.244 101.14 177.983 100.406Q177.45 100.097 176.258 99.5431Q175.828 99.3435 175.609 99.2394Q174.708 98.7996 173.823 98.3432L174.969 96.1214L173.881 98.3719L174.969 96.1214L173.881 98.3719Q173.387 98.133 172.467 97.6704Q171.619 97.2441 171.223 97.0534L172.308 94.8009L171.273 97.077L172.308 94.8009L171.273 97.077Q168.906 96.0014 167.231 95.4055L168.068 93.05L167.809 95.5365ZM168.327 90.5635L168.624 90.5945L168.906 90.6945Q170.781 91.3614 173.342 92.5248L173.367 92.5363L173.342 92.5248L173.367 92.5363L173.392 92.5483Q173.827 92.7578 174.713 93.2035Q175.599 93.6487 176.058 93.8709L176.087 93.8849L176.058 93.8709L176.087 93.8849L176.115 93.8996Q176.951 94.3306 177.76 94.7257Q177.956 94.819 178.363 95.008Q179.763 95.6578 180.498 96.0845Q182.003 96.9606 182.886 97.6183Q184.281 98.6572 185.247 99.8899L185.374 100.052L185.247 99.8899L185.374 100.052L185.473 100.233C185.081 99.5159 184.196 99.242 183.474 99.6243L184.644 101.833L183.37 99.6823Q182.883 99.9709 182.723 100.524Q182.552 101.115 182.846 101.655L182.743 101.466L182.846 101.655L182.743 101.466L182.674 101.262Q182.143 99.7046 180.896 98.0598Q180.268 97.2038 179.242 96.3447L179.218 96.3245L179.242 96.3447L179.218 96.3245L179.194 96.3037Q178.298 95.514 177.087 94.8682Q176.612 94.6223 175.871 94.3735Q174.756 93.979 173.921 93.8232Q172.547 93.597 171.75 93.5355Q170.48 93.4533 169.325 93.4859Q168.779 93.5013 168.509 93.5283L168.256 93.5537L168.509 93.5283L168.256 93.5537L168.002 93.5274C168.833 93.6135 169.575 92.9971 169.653 92.1667Q169.71 91.5736 169.327 91.1042Q168.938 90.6272 168.327 90.5635Z"></path><path id="path4200" fill-rule="evenodd" style="fill:#000000" opacity="1" d="M66.3936 5.50191C65.8831 5.27228 65.6507 4.66932 65.8715 4.18135C66.0924 3.66467 66.6862 3.4352 67.1939 3.63613C67.1939 3.63613 72.3397 5.27222 78.2571 9.03248C79.5938 9.86491 80.9476 10.8407 82.2871 11.9315C83.1362 12.6204 83.9795 13.3669 84.7712 14.1707C86.7016 16.1226 88.457 18.3613 89.8797 20.8298C91.9507 24.4179 93.3103 28.4653 93.5369 32.857C93.6086 33.4024 93.2214 33.8905 92.6706 33.9766C92.1228 34.034 91.615 33.6609 91.5433 33.1155C90.984 30.5608 89.9571 28.2644 88.7094 26.1115C87.4387 23.9013 85.8611 21.9493 84.1917 20.1122C83.1591 18.9928 82.0778 17.9309 81.005 16.8976C79.8749 15.8068 78.7591 14.7446 77.6462 13.7687C76.1489 12.477 74.7061 11.2715 73.3494 10.2381C69.4083 7.22417 66.3936 5.50191 66.3936 5.50191Z"></path><path  id="path4200" style="fill:#000000; opacity:1;" d="M65.3682 7.78192M65.3682 7.78192Q64.0569 7.19213 63.531 5.85144Q62.9927 4.47914 63.5939 3.1506Q64.9198 0.0474391 68.1139 1.31156L67.1939 3.63613L67.9514 1.25366L67.1939 3.63613L67.9514 1.25366Q73.4066 2.9881 79.598 6.92247Q81.7105 8.23796 83.8657 9.99292Q85.3574 11.2033 86.5522 12.4163Q89.8213 15.7218 92.0458 19.5815Q95.6801 25.8783 96.0336 32.7282L93.5369 32.857L96.0155 32.5311L93.5369 32.857L96.0155 32.5311Q96.4604 35.9144 93.0568 36.4466L92.9942 36.4564L92.9312 36.463L92.9942 36.4564L92.9312 36.463Q89.5091 36.8216 89.0647 33.4414L91.5433 33.1155L89.1012 33.6502L91.5433 33.1155L89.1012 33.6502Q88.4407 30.6335 86.5464 27.3651Q85.0684 24.7943 82.3416 21.7935Q81.2042 20.5606 79.2707 18.6981Q77.233 16.7314 75.9979 15.6483Q73.5186 13.5096 71.8346 12.2269Q68.0227 9.3118 65.1535 7.67264L66.3936 5.50191L65.3682 7.78192ZM67.4191 3.22191L67.5291 3.27137L67.6338 3.33118Q70.7939 5.13654 74.8642 8.2493Q76.6694 9.62421 79.2945 11.889Q80.6194 13.0508 82.7394 15.097Q84.7793 17.062 86.0419 18.4309Q89.1331 21.8326 90.8724 24.8579Q93.1581 28.8017 93.9855 32.5808L94.0081 32.6844L93.9855 32.5808L94.0081 32.6844L94.022 32.7896Q93.8315 31.3413 92.4101 31.4902L92.6706 33.9766L92.4101 31.4902L92.6706 33.9766L92.2844 31.5066Q90.8669 31.7283 91.0582 33.183L91.0453 33.0848L91.0582 33.183L91.0453 33.0848L91.0402 32.9859Q90.7487 27.3365 87.7137 22.0782Q85.8119 18.7783 82.9901 15.925Q81.9908 14.9105 80.7085 13.8701Q78.7987 12.3149 76.9163 11.1425Q71.2729 7.55634 66.4364 6.01861L66.3542 5.99246L66.4364 6.01861L66.3542 5.99246L66.2739 5.9607Q67.6046 6.48733 68.1491 5.2121Q68.418 4.61795 68.1857 4.02557Q67.9671 3.46836 67.4191 3.22191Z"></path><path id="path4202" fill-rule="evenodd" style="fill:#000000" opacity="1" d="M92.1602 9.11854C91.6468 8.8889 91.4001 8.31493 91.6095 7.79825C91.8189 7.28157 92.4068 7.02312 92.9203 7.25276C92.9203 7.25276 94.0763 7.42493 95.8633 8.05642C96.4513 8.25735 97.0594 8.48704 97.7277 8.83149C98.3129 9.11854 98.8894 9.46316 99.4802 9.86502C99.8474 10.1234 100.212 10.4103 100.544 10.7547C101.15 11.3288 101.7 12.0177 102.182 12.764C102.618 13.4529 103.008 14.1417 103.315 14.9455C103.757 16.0649 104.087 17.1844 104.239 18.4474C104.42 18.9641 104.139 19.5382 103.614 19.7391C103.089 19.9114 102.518 19.6243 102.337 19.1076C101.812 18.2464 101.175 17.5863 100.524 16.8687C100.002 16.2946 99.4343 15.8641 98.8893 15.3474C98.33 14.8307 97.7421 14.4002 97.22 13.9122C96.5087 13.252 95.9006 12.5918 95.2954 11.989C93.4653 10.238 92.1602 9.11854 92.1602 9.11854Z"></path><path  id="path4202" style="fill:#000000; opacity:1;" d="M91.1395 11.4007M91.1395 11.4007Q89.8522 10.8249 89.3096 9.53595Q88.7482 8.20234 89.2925 6.85927Q89.8396 5.50939 91.1761 4.94349Q91.8256 4.66851 92.5281 4.66846Q93.2653 4.6684 93.941 4.97061L92.9203 7.25276L93.2886 4.78003L92.9203 7.25276L93.2886 4.78003Q94.6825 4.98763 96.6963 5.69928Q97.9154 6.11573 98.873 6.60928Q99.823 7.07473 100.886 7.7978Q101.752 8.40698 102.343 9.01791L100.544 10.7547L102.265 8.94093L100.544 10.7547L102.265 8.94093Q103.361 9.98033 104.282 11.4079Q105.185 12.8338 105.651 14.0536Q106.481 16.1579 106.721 18.1487L104.239 18.4474L106.599 17.6221L104.239 18.4474L106.599 17.6221Q107.077 18.9908 106.44 20.3039Q105.825 21.5696 104.507 22.0739L104.451 22.0956L104.393 22.1145C102.572 22.7119 100.61 21.7417 99.9773 19.9329L102.337 19.1076L100.202 20.4088L102.337 19.1076L100.202 20.4088Q99.8633 19.8524 98.9009 18.7988Q98.75 18.6335 98.6729 18.5486Q98.4392 18.2916 97.8464 17.772Q97.4044 17.3846 97.1693 17.1617Q96.9666 16.9747 96.456 16.5527Q95.832 16.0369 95.5128 15.7386Q95.0034 15.2657 94.126 14.365Q93.7233 13.9516 93.5312 13.7603Q91.7861 12.0913 90.5326 11.0161L92.1602 9.11854L91.1395 11.4007ZM93.1809 6.83639L93.5123 6.9846L93.7878 7.22095Q95.1446 8.38467 97.0596 10.2176Q97.2785 10.4357 97.7076 10.8762Q98.497 11.6866 98.9272 12.0859Q99.135 12.2801 99.6415 12.6988Q100.258 13.2084 100.609 13.5332Q100.774 13.6889 101.142 14.012Q101.948 14.7183 102.376 15.1888Q102.447 15.2676 102.593 15.4267Q103.881 16.8372 104.472 17.8064L104.61 18.0324L104.472 17.8064L104.61 18.0324L104.697 18.2822C104.43 17.5201 103.601 17.112 102.834 17.3637L103.614 19.7391L102.72 17.4043Q102.191 17.6068 101.942 18.1194Q101.671 18.6777 101.879 19.2728L101.789 19.0161L101.879 19.2728L101.789 19.0161L101.757 18.7462Q101.594 17.3944 100.98 15.8373Q100.692 15.085 100.082 14.1201Q99.4851 13.1957 98.8239 12.5685L98.7842 12.5309L98.8239 12.5685L98.7842 12.5309L98.7462 12.4916Q98.4864 12.2226 98.0743 11.9322Q97.3035 11.408 96.5824 11.0537Q95.9512 10.7284 95.0303 10.4136Q94.0385 10.0631 93.1427 9.84981Q92.7348 9.75271 92.552 9.72548L92.2127 9.67495L92.552 9.72548L92.2127 9.67495L91.8996 9.5349Q92.5106 9.80818 93.1256 9.54778Q93.6958 9.30636 93.9265 8.73723Q94.1579 8.16613 93.918 7.59613Q93.6949 7.06631 93.1809 6.83639Z"></path></g></svg>