<svg xmlns="http://www.w3.org/2000/svg" xmlns:xlink="http://www.w3.org/1999/xlink" width="45.657958984375" height="45.00091552734375" viewBox="0 0 45.657958984375 45.00091552734375" fill="none"><g opacity="1"  transform="translate(0 0)"><path id="Path" fill-rule="evenodd" style="fill:#231F20" opacity="1" d="M20.586 25.6215C21.223 25.3511 21.8661 25.0806 22.479 24.7681C22.7074 24.66 22.8817 24.4737 23.08 24.3655L24.2819 23.8006C24.6906 23.6143 25.1173 23.452 25.4838 23.2417C25.8244 23.0549 26.1378 22.8223 26.4153 22.5506C26.7342 22.1884 27.152 21.9273 27.6173 21.7994C27.7795 21.7994 28.1341 22.0277 28.4165 22.4424C28.7224 22.8334 28.8489 23.3353 28.7651 23.8246C28.693 23.9749 28.6209 24.1071 28.5488 24.2393L28.4406 24.4436L28.2903 24.5999C28.1015 24.8 27.9008 24.9886 27.6894 25.1648C27.2609 25.5124 26.7802 25.7902 26.2651 25.9881C25.6812 26.2691 25.1325 26.6181 24.6305 27.0277C24.0295 27.3943 23.3564 27.7249 22.7134 28.0554L21.5115 28.6563C20.9105 28.9749 20.3096 29.2573 19.7447 29.6179C19.347 29.9666 18.9717 30.3399 18.6209 30.7357C18.5335 30.8162 18.4389 30.8886 18.3384 30.952C18.257 30.9961 18.1665 31.0208 18.074 31.0241C17.9718 31.0017 17.8768 30.9542 17.7975 30.8859C17.5857 30.7182 17.4047 30.5148 17.2627 30.285C17.1786 30.1527 17.0884 30.0265 17.0163 29.9063C16.8874 29.6894 16.8055 29.4478 16.7759 29.1972C16.7339 28.9486 16.7339 28.6946 16.7759 28.446C16.8804 28.2039 17.0008 27.969 17.1365 27.7429C17.2797 27.5646 17.4408 27.4015 17.6173 27.2561C17.9647 26.9684 18.339 26.7148 18.735 26.4989C19.336 26.1563 19.937 25.8979 20.5379 25.5494L20.586 25.6215Z"></path><path id="Path" fill-rule="evenodd" style="fill:#231F20" opacity="1" d="M25.37 22.4603C24.9192 22.0877 24.4565 21.7151 23.9817 21.3665C23.8075 21.2403 23.6031 21.1742 23.4289 21.036C22.8279 20.5612 22.2269 20.0624 21.626 19.5937C21.3495 19.3954 21.0731 19.185 20.7846 18.9927C20.3759 18.8071 20.0235 18.5169 19.763 18.1514C19.6849 18.0192 19.8952 17.7487 20.1957 17.5023C20.4962 17.2559 20.8748 17.0156 21.1031 17.0817C21.512 17.1873 21.9136 17.3198 22.305 17.4783C22.6829 17.6777 23.0226 17.9422 23.3087 18.2595C23.7329 18.577 24.2003 18.8319 24.6969 19.0168C25.2077 19.2932 25.7125 19.6177 26.2233 19.9062L27.1668 20.5071C27.6372 20.81 28.1226 21.0888 28.6212 21.3425C29.0178 21.5348 29.5226 21.5408 29.9553 21.7031C30.0575 21.7259 30.1579 21.756 30.2558 21.7932C30.5863 21.9855 30.5683 22.2259 30.1476 22.899C30.0515 23.0492 29.9613 23.2055 29.8591 23.3497C29.6329 23.7404 29.2684 24.0321 28.8375 24.167C28.0827 24.2277 27.3342 23.9904 26.7522 23.5059C26.2894 23.2115 25.8447 22.8449 25.3639 22.5204L25.37 22.4603Z"></path><path id="Path" fill-rule="evenodd" style="fill:#231F20" opacity="1" d="M18.705 44.708C15.2724 44.3207 11.9872 43.097 9.13768 41.1443C7.74584 40.1471 6.48935 38.9734 5.3997 37.6527C4.29463 36.356 3.35215 34.9292 2.5932 33.4039C1.51729 31.2233 0.766147 28.8969 0.363635 26.4989C-0.386601 22.2609 0.0288417 17.8988 1.56556 13.8787C3.13017 9.87904 5.84979 6.43559 9.37807 3.98685C12.4844 1.81866 16.0951 0.484014 19.8649 0.110646C22.2671 -0.151238 24.6974 0.0528114 27.0223 0.711608C27.6022 0.866904 28.1738 1.05143 28.7351 1.26449L29.5464 1.64911C29.8168 1.78132 30.0692 1.93757 30.3336 2.0818L31.1028 2.52651C31.3553 2.68276 31.5956 2.85704 31.836 3.0193L32.5632 3.5181C32.7976 3.69238 33.0259 3.87867 33.2543 4.05896C34.3781 4.99045 34.0055 5.1467 32.7134 5.0205C32.1125 4.93637 31.175 4.87627 30.1593 4.78012C29.6425 4.78012 29.0896 4.73805 28.5307 4.68997C28.2423 4.68997 27.9658 4.65391 27.6653 4.68997C27.3649 4.72603 27.1125 4.55175 26.824 4.50367C25.8355 4.27861 24.8308 4.13192 23.8192 4.06497L23.068 4.0229C22.8156 4.0229 22.5632 4.0229 22.3108 4.0229C21.8103 3.99584 21.3088 3.99584 20.8084 4.0229C18.8009 4.08563 16.819 4.49216 14.949 5.22483C14.0053 5.59099 13.0928 6.03315 12.2206 6.54694C11.348 7.08015 10.52 7.68308 9.74465 8.34983C8.15336 9.69074 6.80369 11.2945 5.75426 13.0914C4.45654 15.3369 3.67636 17.8438 3.47061 20.4291C3.29204 23.0753 3.53752 25.733 4.19777 28.3017C4.55067 29.7069 5.0565 31.0692 5.70619 32.3642C6.34078 33.6565 7.1496 34.8555 8.11004 35.9279C10.0673 38.0512 12.5574 39.6116 15.3216 40.4472C18.8128 41.4473 22.5023 41.5343 26.0367 40.6996C28.7537 40.0711 31.3582 39.0293 33.7591 37.6106C34.9368 36.928 36.0388 36.1222 37.0464 35.2068C37.5345 34.7572 37.981 34.2644 38.3805 33.7344L38.9815 32.9472C39.1557 32.6707 39.306 32.3462 39.4742 32.0878C40.4441 30.3077 40.9737 28.3212 41.0187 26.2945C41.0573 24.2889 40.7461 22.2919 40.0993 20.3931C39.7988 19.5638 39.4983 18.7645 39.1137 17.9892C38.4586 16.4868 37.9117 15.5854 37.7194 14.7861C37.6328 14.4422 37.5885 14.0891 37.5872 13.7344C37.6041 13.3948 37.6751 13.0601 37.7976 12.7429C37.8906 12.425 38.005 12.1138 38.1401 11.8114C38.3925 11.3667 38.8913 11.3126 39.6125 11.6551C40.6339 12.1966 41.4973 12.9938 42.1185 13.9688C43.4192 15.8267 44.3965 17.891 45.0091 20.0746C45.6161 22.372 45.7993 24.7608 45.55 27.1239C45.1305 30.8595 43.5281 34.3633 40.9767 37.1239L39.6545 38.4039C39.4315 38.6242 39.1903 38.8252 38.9334 39.0049L38.1942 39.5457C37.4908 40.0596 36.7563 40.5292 35.9947 40.952C35.2435 41.3486 34.5043 41.7693 33.729 42.1539C32.1799 42.8886 30.5716 43.4917 28.9214 43.9568C25.6046 44.9062 22.1368 45.2122 18.705 44.8582L18.705 44.708Z"></path><path id="Path" fill-rule="evenodd" style="fill:#231F20" opacity="1" d="M29.8465 27.2139C29.3237 27.5144 28.7888 27.8149 28.26 28.0673L27.9715 28.2176L27.7492 28.3197L27.3105 28.5301L25.5556 29.3353C24.3898 29.8602 23.2139 30.365 22.028 30.8498C21.5953 31.0301 21.1686 31.2284 20.7419 31.4507L19.9787 31.7813C19.6181 31.9375 19.2335 32.0817 18.8669 32.2079C18.2593 32.4532 17.6265 32.6306 16.9799 32.7368C16.4746 32.822 15.9557 32.7148 15.5256 32.4363C15.2431 32.3341 15.189 32.0817 15.0568 31.8353L14.7443 31.0962C14.614 30.4714 14.5456 29.8353 14.54 29.1971C14.5039 27.7308 14.54 27.1839 14.54 26.3125L14.6542 23.8786C14.7083 22.4483 14.6542 21.012 14.5941 19.6058C14.546 18.6983 14.4559 17.8029 14.3958 16.9014C14.3568 16.4599 14.3448 16.0163 14.3597 15.5733L14.4799 14.2632C14.534 13.7945 14.9427 13.6202 15.6338 13.9928C16.0468 14.2343 16.4216 14.5361 16.7455 14.8882C16.9419 15.0871 17.1134 15.3091 17.2564 15.5493C17.3767 15.7914 17.4578 16.051 17.4967 16.3185C17.7673 18.1974 17.9418 20.0889 18.0196 21.9856C18.1269 23.8542 18.0987 25.728 17.9354 27.5926C17.8814 28.0613 17.8393 28.0914 17.8213 28.3197C17.7962 28.5077 17.8147 28.6989 17.8753 28.8786C18.0609 28.8633 18.2421 28.8144 18.4102 28.7344L19.0532 28.488C21.3249 27.5385 23.6145 26.4928 25.8381 25.375L26.3489 25.1106L26.6013 24.9964L27.1242 24.744C27.5198 24.5639 27.8929 24.338 28.2359 24.0709C28.302 24.0228 28.3862 23.9087 28.284 23.8606L28.1037 23.6983C27.9709 23.5982 27.8444 23.4898 27.7251 23.3738L27.1662 22.9832L26.8778 22.7789L26.7215 22.6707L26.433 22.4964C25.7179 22.0397 25.0028 21.5889 24.2756 21.1563C23.5484 20.7236 22.653 20.2909 21.8717 19.8101C21.0562 19.3432 20.2659 18.8337 19.504 18.2837C19.1614 18.0313 18.8128 17.7849 18.4823 17.4964C18.22 17.2566 17.9897 16.9839 17.7972 16.6851C17.6581 16.4586 17.5566 16.211 17.4967 15.9519C17.4316 15.5263 17.5422 15.0925 17.8032 14.75C17.9057 14.5843 18.0245 14.4293 18.1578 14.2873C18.4102 14.0921 18.7327 14.0115 19.0472 14.0649C19.4621 14.087 19.8694 14.1847 20.2491 14.3534C21.5592 14.9543 22.9655 15.6394 24.4559 16.3065C24.8215 16.4829 25.1749 16.6837 25.5136 16.9075L26.5653 17.5445L28.6927 18.8846L29.4499 19.3654C29.8105 19.5998 30.147 19.8462 30.4655 20.0986L31.4391 20.8498L32.2804 21.613C32.5434 21.801 32.7509 22.0563 32.8814 22.3522L33.1097 22.7308C33.1521 22.8505 33.1862 22.973 33.2119 23.0974L33.302 23.4519C33.3199 23.5956 33.3199 23.7409 33.302 23.8846C33.2239 24.137 33.2299 24.3594 33.1458 24.5998C33.0358 24.8486 32.9051 25.0878 32.7552 25.3149C32.543 25.5778 32.3077 25.8212 32.052 26.0421C31.8718 26.1502 31.7155 26.2644 31.5232 26.3606C31.333 26.4517 31.1484 26.554 30.9703 26.6671C30.6398 26.8894 30.2972 27.0998 29.9427 27.3041L29.8465 27.2139Z"></path></g></svg>