<svg xmlns="http://www.w3.org/2000/svg" xmlns:xlink="http://www.w3.org/1999/xlink" width="21.591796875" height="23.510986328125" viewBox="0 0 21.591796875 23.510986328125" fill="none"><path  id="Icon" style="fill:#000000; opacity:1;" d="M2.10753 22.9395M2.10753 22.9395Q-1.80545 7.11343 1.54672 5.691Q1.62888 5.65623 1.76949 5.60989Q1.84537 5.58488 1.87064 5.57471L10.259 2.1928L10.8199 3.58399L2.43056 6.96629Q2.36062 6.99443 2.23902 7.0345Q2.15682 7.0616 2.13265 7.07182Q-0.0423698 7.99478 3.56369 22.5795L2.10753 22.9395ZM9.17236 1.4639M9.17236 1.4639Q9.68489 0.569055 10.6059 0.191768Q11.7844 -0.290996 12.8548 0.442231Q14.0199 1.24049 13.8058 2.85229Q13.6069 4.34971 12.4461 5.01358L11.7014 3.7115Q12.2177 3.41622 12.3189 2.65474Q12.4116 1.95685 12.0071 1.67973Q11.6043 1.40378 11.1745 1.57982Q10.7304 1.76176 10.474 2.20942L9.17236 1.4639ZM14.0818 15.7044M14.0818 15.7044Q13.6782 14.254 14.7805 12.9777Q15.5345 12.1055 16.8423 12.0166Q18.3728 11.9126 19.0791 13.0796L18.4375 13.468L19.0337 13.0129L18.4375 13.468L19.0337 13.0129Q20.0092 14.2911 19.4298 15.5911L18.7448 15.2857L19.4732 15.4641L18.7448 15.2857L19.4732 15.4641Q18.9031 17.7921 15.9648 17.3153Q14.4686 17.0945 14.0818 15.7044L14.0818 15.7044ZM15.5269 15.3023Q15.6523 15.753 16.2051 15.8347Q17.7757 16.0896 18.0163 15.1073L18.0323 15.0419L18.0163 15.1073L18.0323 15.0419L18.0597 14.9804Q18.2768 14.4935 17.8413 13.923L17.8168 13.8909L17.8413 13.923L17.8168 13.8909L17.7959 13.8563Q17.5627 13.4711 16.944 13.5131Q16.2603 13.5596 15.9157 13.9582Q15.3388 14.6262 15.5269 15.3023L15.5269 15.3023ZM13.7889 19.465L13.7096 19.6129Q13.4823 20.037 13.6525 20.3349Q14.5511 21.9076 16.5439 21.9587Q19.2061 22.0269 20.0616 20.2462Q20.1404 20.0822 19.9711 19.7664L19.8095 19.465Q19.4504 18.795 18.622 18.795L14.9764 18.795Q14.148 18.795 13.7889 19.465L13.7889 19.465ZM12.4669 18.7563Q13.2502 17.295 14.9764 17.295L18.622 17.295Q20.3482 17.295 21.1315 18.7563L21.2931 19.0577Q21.8224 20.045 21.4137 20.8957Q20.1379 23.5513 16.5054 23.4582Q13.6679 23.3854 12.3501 21.079Q11.768 20.0601 12.3876 18.9042L12.4669 18.7563L12.4669 18.7563ZM13.4551 3.82747L14.0065 6.2937L15.0733 10.8177L13.6134 11.1619L12.5426 6.621L11.9912 4.15477L13.4551 3.82747ZM3.3409 7.70976M3.3409 7.70976Q3.10133 8.14564 3.13398 9.54031Q3.16584 10.9012 3.481 12.9823Q4.00515 16.4435 5.12691 20.9526Q5.23477 21.3871 5.6598 21.5871Q6.10346 21.7958 6.56297 21.6028L9.79945 20.2433L10.3804 21.6262L7.14379 22.9858Q6.0689 23.4372 5.02129 22.9444Q3.95079 22.4408 3.67127 21.3147Q2.53258 16.7375 1.99791 13.2069Q1.26563 8.37139 2.02636 6.98727L3.3409 7.70976ZM3.78376 6.96661M3.78376 6.96661Q3.84432 6.89542 3.91613 6.68568Q4.01115 6.4082 4.03045 6.10789Q4.07299 5.44592 3.7382 5.13986Q3.60765 5.01913 3.40721 4.94848Q2.79511 4.73223 2.46446 5.21808Q2.3413 5.39904 2.35016 5.55888Q2.35413 5.63062 2.40233 5.66371L1.55322 6.90024Q0.897243 6.44979 0.852457 5.64191Q0.815483 4.97496 1.2244 4.37412Q1.63817 3.76615 2.31816 3.51949Q3.08155 3.24257 3.9059 3.5338Q4.39863 3.70749 4.75031 4.03277Q5.61603 4.82422 5.52736 6.20409Q5.49521 6.70447 5.33524 7.17163Q5.17125 7.65051 4.92639 7.93842L3.78376 6.96661ZM3.47835 4.39856M3.47835 4.39856Q3.56098 3.87381 3.91117 3.41942Q4.2574 2.97017 4.77214 2.71399Q5.33121 2.43574 5.96542 2.45072Q6.64516 2.46676 7.3087 2.82205L7.34431 2.84112L7.37767 2.8639L7.34431 2.84112L7.37767 2.8639Q8.09264 3.35219 8.39209 4.03036Q8.66549 4.64952 8.56089 5.34006Q8.47557 5.90334 8.15357 6.4224Q7.86584 6.88622 7.47518 7.18642L6.5612 5.99704Q6.73522 5.86332 6.87892 5.63168Q7.0386 5.37427 7.07781 5.11542Q7.16564 4.53554 6.53169 4.10258L6.95468 3.48324L6.53169 4.10258L6.95468 3.48324L6.60066 4.14442Q5.95701 3.79979 5.44048 4.05687Q5.01749 4.26739 4.96009 4.63188L3.47835 4.39856ZM6.32724 3.11822M6.32724 3.11822Q6.70847 2.20788 7.56051 1.59618Q8.7747 0.724482 10.1063 1.23107L10.1489 1.2473L10.1893 1.26858L10.1489 1.2473L10.1893 1.26858Q11.0915 1.74414 11.4518 2.52471Q11.773 3.22048 11.6081 4.01286Q11.4725 4.66386 11.0532 5.20002Q10.6148 5.7605 10.0778 5.93103L9.62381 4.50139Q9.71889 4.47119 9.87162 4.27592Q10.0753 4.01545 10.1395 3.70708Q10.2839 3.01405 9.48986 2.59553L9.83958 1.93206L9.48986 2.59553L9.83958 1.93206L9.57289 2.63304Q8.9947 2.41307 8.4353 2.81468Q7.92808 3.17882 7.71082 3.69762L6.32724 3.11822ZM4.5481 10.2678M4.5481 10.2678Q6.20892 9.80085 7.83779 9.15812Q9.95932 8.32099 10.6707 7.68248L11.6726 8.79879Q10.7606 9.61735 8.38836 10.5534Q6.68844 11.2242 4.95409 11.7118L4.5481 10.2678ZM5.3692 12.6448M5.3692 12.6448Q6.55353 12.4668 10.8228 10.8942Q11.4773 10.6531 11.7213 10.5657L12.2272 11.9778Q11.9895 12.063 11.3413 12.3017Q6.92812 13.9274 5.59215 14.1282L5.3692 12.6448ZM16.4217 15.8355M16.4217 15.8355Q16.4238 15.8352 16.4283 15.8346Q16.9167 15.7685 17.3255 15.5345Q17.9817 15.1589 17.9475 14.4465Q17.9389 14.2669 17.9019 14.1202L19.3564 13.7536Q19.43 14.0455 19.4458 14.3745Q19.4882 15.2586 19.0435 15.9414Q18.6925 16.4804 18.0707 16.8363Q17.4079 17.2158 16.6294 17.321L16.6275 17.3213L16.4217 15.8355ZM16.4785 15.8298M16.4785 15.8298Q17.6373 15.7584 17.9259 15.2027L19.2571 15.8941Q18.5771 17.2033 16.5708 17.327L16.4785 15.8298ZM16.6275 17.3213M16.6275 17.3213Q16.306 17.3658 15.9754 17.317L16.1945 15.8331Q16.3128 15.8505 16.4217 15.8355L16.6275 17.3213ZM17.9019 14.1202M17.9019 14.1202Q17.8635 13.9681 17.7959 13.8563L19.0791 13.0796Q19.2631 13.3836 19.3564 13.7536L17.9019 14.1202ZM19.3286 13.6662M19.3286 13.6662Q19.5168 14.1524 19.5278 14.6785Q19.5418 15.3459 19.2571 15.8941L17.9259 15.2027Q18.1488 14.7736 17.9297 14.2077L19.3286 13.6662ZM17.9872 15.1041M17.9872 15.1041Q18.0313 15.0442 18.0597 14.9804L19.4298 15.5911Q19.3355 15.8025 19.1958 15.9926L17.9872 15.1041ZM21.1741 18.8507M21.1741 18.8507Q21.391 19.438 21.3158 20.0922Q21.2269 20.8661 20.7408 21.5184Q19.6002 23.0489 16.6252 23.4516L16.5246 22.7084L16.6155 21.964L16.5246 22.7084L16.6155 21.964Q18.2826 22.1675 19.2379 21.4874Q19.5774 21.2457 19.7897 20.9147Q19.9552 20.6566 20.0025 20.4225L21.4728 20.7194Q21.3698 21.2294 21.0524 21.7244Q20.6836 22.2995 20.1079 22.7094Q18.6785 23.727 16.4337 23.4529L16.4337 23.4529L16.424 21.9652Q18.7742 21.647 19.5381 20.622Q19.7828 20.2936 19.8256 19.921Q19.86 19.6222 19.767 19.3705L21.1741 18.8507Z"></path></svg>