<svg xmlns="http://www.w3.org/2000/svg" xmlns:xlink="http://www.w3.org/1999/xlink" width="47.2998046875" height="47.307647705078125" viewBox="0 0 47.2998046875 47.307647705078125" fill="none"><path  id="Icon" style="fill:#000000; opacity:1;" d="M47.2999 31.1823L47.2999 44.5359Q47.2999 45.9622 45.8438 46.0104L6.69171 47.3077L6.07805 47.098L5.63655 46.9471L5.06378 46.7514L4.58761 46.5887L3.96935 46.3775L3.63521 46.2633L3.10201 46.0811L2.45567 45.8603L1.85886 45.6563L1.31847 45.4717L1.00981 45.3662Q-9.76324e-05 45.0212 -9.76324e-05 43.9733L-9.76324e-05 30.149L13.1702 28.7372L13.2928 29.8806L12.1447 29.8143L12.9216 16.3649L26.8062 16.3649C26.9577 16.3649 27.1084 16.3872 27.2534 16.4313L34.4676 18.6224L34.1484 29.6752L32.9989 29.642L32.9195 28.4948L38.9149 28.0798L38.9546 28.0798C39.0917 28.0798 39.2282 28.0981 39.3605 28.1342L47.2999 30.3045L47.2999 31.1823ZM44.9999 31.1823L46.1499 31.1823L45.8467 32.2916L38.754 30.3528C38.8194 30.3707 38.8868 30.3798 38.9546 30.3798L38.9546 29.2298L39.034 30.3771L31.8128 30.8769L32.1432 19.4342L33.2928 19.4674L32.9586 20.5678L26.585 18.632C26.6567 18.6538 26.7313 18.6649 26.8062 18.6649L14.007 18.6649L14.007 17.5149L15.1551 17.5813L14.3846 30.9202L1.27247 32.3257L1.1499 31.1823L2.2999 31.1823L2.2999 43.9733Q2.2999 43.3765 1.75348 43.1898L2.06213 43.2952L2.60253 43.4799L3.19933 43.6838L3.84566 43.9046L4.37888 44.0868L4.71302 44.201L5.33124 44.4122L5.80746 44.575L6.38019 44.7707L6.82173 44.9215L7.23603 45.0631L6.86419 46.1513L6.82611 45.0019L45.7677 43.7117Q44.9999 43.7371 44.9999 44.5359L44.9999 31.1823ZM29.4169 5.36681L25.629 5.69176Q24.3912 5.79795 24.0006 4.63883Q23.4065 2.87593 22.8214 1.9556Q22.9966 2.23119 23.3833 2.29065Q23.7487 2.34685 23.9971 2.15557Q23.9428 2.19736 23.7467 2.57372Q23.2863 3.45702 22.8163 4.98946Q22.4889 6.05707 21.348 6.08949Q19.7171 6.13583 18.3033 6.42172Q18.4683 6.38836 18.6104 5.99744Q18.7602 5.58528 18.5965 5.37834Q18.7924 5.62598 19.8438 6.40019Q20.7068 7.03571 21.0242 7.33521Q22.1963 8.44125 20.7152 11.0658Q19.9378 12.4435 20.0166 12.6221Q19.8429 12.2287 19.4124 12.2762Q19.4884 12.2678 19.797 12.0636Q20.3748 11.6812 21.66 10.4623Q22.5063 9.65959 22.7984 9.47587Q23.8847 8.79243 26.5571 10.811Q28.0271 11.9215 28.2309 11.9428Q27.7116 11.8884 27.427 12.3586Q27.3349 12.5109 27.3369 12.5639Q27.324 12.2209 27.0663 11.4384Q26.6738 10.2467 25.9272 8.66159Q25.143 6.99635 28.9248 4.03659Q28.4646 4.39673 28.6969 4.93218Q28.9045 5.41077 29.4169 5.36681L29.4169 5.36681ZM29.2203 3.07523Q30.3561 2.97778 30.8069 4.01688Q31.2821 5.11233 30.3423 5.84783Q28.0057 7.67657 28.008 7.6816Q28.8144 9.39375 29.2508 10.7189Q29.6103 11.8101 29.6353 12.4778Q29.6591 13.1127 29.3948 13.5495Q28.9236 14.3281 27.991 14.2303Q27.1512 14.1422 25.1708 12.6463Q24.2015 11.9141 23.8244 11.6917Q23.6076 11.5638 23.5156 11.5381Q23.74 11.6007 24.0231 11.4227Q23.9238 11.4851 23.2427 12.1311Q21.8117 13.4883 21.0663 13.9816Q20.2938 14.4929 19.6648 14.5623Q18.4198 14.6997 17.9126 13.5511Q17.3679 12.3175 18.7122 9.93543Q19.181 9.10453 19.2732 8.81499Q19.2658 8.83822 19.4456 9.00798Q19.2302 8.80467 18.48 8.25225Q17.18 7.29498 16.7926 6.8052Q16.1602 6.00571 16.4487 5.21183Q16.7475 4.38979 17.8475 4.16735Q19.4546 3.84236 21.2826 3.79041Q20.7739 3.80487 20.6174 4.31507Q21.1492 2.58101 21.7071 1.5107Q22.1377 0.684488 22.5939 0.333202Q23.1254 -0.0760469 23.7329 0.0173815Q24.3776 0.116536 24.7623 0.721556Q25.4971 1.8772 26.1802 3.90437Q25.994 3.352 25.4324 3.40018L29.2203 3.07522L29.2203 3.07523ZM46.207 32.3309L32.9925 32.9876L32.8784 30.6905L46.0928 30.0337L46.207 32.3309ZM5.71419 46.1513L5.71419 33.1348L8.01419 33.1348L8.01419 46.1513L5.71419 46.1513ZM6.8071 31.9862L19.6642 31.3472L19.7784 33.6444L6.92127 34.2834L6.8071 31.9862ZM6.49236 34.223L6.07807 34.0815L6.82172 31.905L7.23601 32.0465L6.49236 34.223ZM34.1484 29.6752L34.085 31.8722L31.7859 31.8058L31.8494 29.6088L34.1484 29.6752ZM31.429 44.1656L31.7859 31.8058L34.085 31.8722L33.728 44.232L31.429 44.1656ZM32.9925 32.9876L19.7784 33.6444L19.6642 31.3472L32.8784 30.6905L32.9925 32.9876ZM33.2928 20.6174L19.7213 20.6174L19.7213 18.3174L33.2928 18.3174L33.2928 20.6174ZM20.8713 19.4674L20.8713 32.4958L18.5713 32.4958L18.5713 19.4674L20.8713 19.4674ZM19.3495 20.5557L19.1284 20.4801L19.8721 18.3037L20.0932 18.3792L19.3495 20.5557ZM14.3789 16.4267L14.8441 16.5857L14.1004 18.7621L13.6352 18.6032L14.3789 16.4267ZM13.7261 28.8154L14.2485 29.0279L13.3818 31.1584L12.8594 30.9459L13.7261 28.8154ZM20.8713 32.4958L20.8713 44.8497L18.5713 44.8497L18.5713 32.4958L20.8713 32.4958ZM19.288 33.561L18.7233 33.3313L19.59 31.2008L20.1547 31.4306L19.288 33.561ZM1.52173 30.0941L2.06213 30.2787L1.31847 32.4552L0.778072 32.2705L1.52173 30.0941ZM15.6207 17.7347L14.9636 30.1539L12.6668 30.0324L13.3239 17.6131L15.6207 17.7347ZM14.8441 16.5857L15.4372 16.7883L14.6936 18.9648L14.1004 18.7621L14.8441 16.5857ZM14.2485 29.0279L14.9273 29.3041L14.0606 31.4345L13.3818 31.1584L14.2485 29.0279ZM13.3452 30.3167L13.9166 17.824L16.2142 17.9291L15.6427 30.4218L13.3452 30.3167ZM14.9273 29.3041L15.5368 29.552L14.6702 31.6825L14.0606 31.4345L14.9273 29.3041ZM15.4372 16.7883L16.1197 17.0215L15.376 19.198L14.6936 18.9648L15.4372 16.7883ZM16.8964 18.1689L16.252 30.6764L13.955 30.5581L14.5994 18.0506L16.8964 18.1689ZM16.1197 17.0215L16.5217 17.1589L15.7781 19.3354L15.376 19.198L16.1197 17.0215ZM15.5369 29.552L16.1319 29.7941L15.2653 31.9246L14.6702 31.6825L15.5369 29.552ZM14.5493 30.8182L15.0006 18.206L17.2992 18.2882L16.8479 30.9005L14.5493 30.8182ZM16.1319 29.7941L16.6449 30.0028L15.7782 32.1332L15.2653 31.9246L16.1319 29.7941ZM16.5217 17.1589L17.1273 17.3658L16.3836 19.5423L15.7781 19.3354L16.5217 17.1589ZM17.9044 18.5036L17.3605 31.1176L15.0626 31.0185L15.6065 18.4045L17.9044 18.5036ZM17.1273 17.3658L17.6482 17.5438L16.9045 19.7202L16.3836 19.5422L17.1273 17.3658ZM16.6449 30.0028L17.1468 30.2069L16.2801 32.3374L15.7782 32.1332L16.6449 30.0028ZM15.5646 31.221L16.1275 18.5808L18.4252 18.6832L17.8623 31.3233L15.5646 31.221ZM17.1468 30.2069L17.6003 30.3914L16.7336 32.5219L16.2801 32.3374L17.1468 30.2069ZM17.6481 17.5438L18.1884 17.7284L17.4447 19.9048L16.9045 19.7202L17.6481 17.5438ZM18.9651 18.8756L18.3155 31.5157L16.0185 31.3976L16.6681 18.7576L18.9651 18.8756ZM18.1884 17.7284L18.6646 17.8911L17.9209 20.0675L17.4447 19.9048L18.1884 17.7284ZM17.6003 30.3914L18.0118 30.5588L17.1451 32.6893L16.7336 32.5219L17.6003 30.3914ZM16.4303 31.5592L17.1446 18.9144L19.4409 19.0442L18.7266 31.6889L16.4303 31.5592ZM18.0118 30.5588L18.5257 30.7679L17.659 32.8984L17.1451 32.6893L18.0118 30.5588ZM18.6646 17.8911L19.2089 18.0771L18.4653 20.2535L17.9209 20.0675L18.6646 17.8911ZM19.9851 19.2328L19.2404 31.9006L16.9444 31.7656L17.6891 19.0978L19.9851 19.2328ZM19.2089 18.0771L19.651 18.2281L18.9074 20.4046L18.4653 20.2535L19.2089 18.0771ZM18.5257 30.7679L19.0253 30.9711L18.1586 33.1016L17.659 32.8984L18.5257 30.7679ZM17.4436 31.9743L18.1309 19.2543L20.4275 19.3784L19.7403 32.0984L17.4436 31.9743ZM19.0253 30.9711L19.59 31.2008L18.7233 33.3313L18.1586 33.1016L19.0253 30.9711ZM19.651 18.2281L19.8721 18.3037L19.1284 20.4801L18.9074 20.4046L19.651 18.2281ZM20.6499 19.4226L20.3062 32.2968L18.0071 32.2354L18.3507 19.3612L20.6499 19.4226ZM5.29989 46.0097L5.29989 32.9932L7.59989 32.9932L7.59989 46.0097L5.29989 46.0097ZM6.07806 34.0814L5.63654 33.9306L6.3802 31.7541L6.82172 31.905L6.07806 34.0814ZM7.15837 32.8424L7.15837 45.8589L4.85837 45.8589L4.85837 32.8424L7.15837 32.8424ZM5.63654 33.9306L5.06378 33.7349L5.80745 31.5584L6.3802 31.7541L5.63654 33.9306ZM4.28562 45.6632L4.28562 32.6467L6.58562 32.6467L6.58562 45.6632L4.28562 45.6632ZM5.06379 33.7349L4.5876 33.5722L5.33126 31.3957L5.80745 31.5584L5.06379 33.7349ZM6.10943 32.4839L6.10943 45.5005L3.80943 45.5005L3.80943 32.4839L6.10943 32.4839ZM4.5876 33.5722L3.96935 33.3609L4.71301 31.1845L5.33126 31.3957L4.5876 33.5722ZM3.19118 45.2892L3.19118 32.2727L5.49118 32.2727L5.49118 45.2892L3.19118 45.2892ZM3.96935 33.3609L3.63521 33.2468L4.37888 31.0703L4.71302 31.1845L3.96935 33.3609ZM5.15705 32.1585L5.15705 45.1751L2.85705 45.1751L2.85705 32.1585L5.15705 32.1585ZM3.63521 33.2468L3.102 33.0646L3.84567 30.8881L4.37888 31.0703L3.63521 33.2468ZM2.32383 44.9929L2.32383 31.9763L4.62383 31.9763L4.62383 44.9929L2.32383 44.9929ZM3.10201 33.0646L2.45567 32.8437L3.19933 30.6673L3.84566 30.8881L3.10201 33.0646ZM3.9775 31.7555L3.9775 44.772L1.6775 44.772L1.6775 31.7555L3.9775 31.7555ZM2.45567 32.8437L1.85886 32.6398L2.60253 30.4634L3.19933 30.6673L2.45567 32.8437ZM1.08069 44.5681L1.08069 31.5516L3.38069 31.5516L3.38069 44.5681L1.08069 44.5681ZM1.85886 32.6398L1.31847 32.4552L2.06213 30.2787L2.60252 30.4634L1.85886 32.6398ZM2.8403 31.3669L2.8403 44.3835L0.540298 44.3835L0.540298 31.3669L2.8403 31.3669Z"></path></svg>